<svg width="6144" height="4096" viewBox="0 0 6144 4096" fill="none" xmlns="http://www.w3.org/2000/svg">
<g clip-path="url(#clip0_2_122)">
<path d="M1344.07 2124.22C1342.77 2102.84 1342.56 2082.87 1342.38 2062.9C1342.33 2056.3 1342.38 2049.7 1342.38 2041.75C1336.26 2041.05 1331.22 2040 1326.18 2039.97C1283.53 2039.72 1240.88 2039.68 1198.23 2039.52C1191.7 2039.49 1185.17 2039.16 1179.42 2039C1178.13 2037.54 1177.59 2037.09 1177.27 2036.52C1176.95 2035.97 1176.68 2035.3 1176.68 2034.68C1176.6 1891.41 1176.54 1748.15 1176.52 1604.89C1176.52 1602.27 1177.11 1599.66 1177.47 1596.67C1190.84 1593.42 1204.19 1595.29 1217.39 1594.9C1231.37 1594.5 1245.38 1594.77 1259.37 1594.81C1272.7 1594.85 1286.03 1594.99 1299.35 1595.03C1312.55 1595.07 1325.76 1595.04 1340.08 1595.04C1343.9 1580.43 1341.56 1566.47 1342.15 1552.76C1342.75 1538.93 1341.39 1525 1342.97 1512.51C1344.82 1510.87 1345.24 1510.35 1345.79 1510.05C1346.36 1509.74 1347.05 1509.47 1347.69 1509.47C1446.97 1509.33 1546.25 1509.2 1645.53 1509.13C1647.45 1509.13 1649.37 1509.79 1651.98 1510.26C1655.4 1523.93 1653.56 1537.91 1654.04 1551.72C1654.51 1564.93 1654.49 1578.15 1654.7 1592.6C1660.82 1593.3 1665.87 1594.36 1670.93 1594.38C1710.25 1594.52 1749.56 1594.43 1788.88 1594.51C1796.8 1594.52 1804.71 1594.97 1813.33 1595.23C1816.46 1602.88 1815.22 1610.22 1815.22 1617.27C1815.25 1693.25 1815.04 1769.22 1815.04 1845.19C1815.04 1903.17 1815.26 1961.14 1815.37 2019.12C1815.38 2024.41 1815.37 2029.7 1815.37 2034.37C1808.75 2040 1801.82 2038.07 1795.39 2038.05C1756.08 2037.92 1716.76 2037.52 1677.44 2037.23C1670.8 2037.18 1664.16 2037.22 1656.58 2037.22C1655.58 2041.35 1653.98 2044.99 1653.93 2048.66C1653.62 2067.31 1653.77 2085.98 1653.65 2104.63C1653.6 2111.19 1653.23 2117.74 1652.96 2125.54C1649.09 2126.04 1646 2126.79 1642.91 2126.79C1546.94 2126.85 1450.98 2126.85 1355.02 2126.79C1351.73 2126.79 1348.45 2126.03 1344.07 2124.22ZM1409.9 1727.75C1403.66 1734.64 1397 1741.21 1391.23 1748.49C1361.02 1786.63 1358.31 1851.11 1390.89 1891.63C1441.72 1954.83 1535.44 1960.95 1593.64 1902.48C1614.21 1881.81 1627.54 1856.4 1628.94 1826.28C1631.26 1776.34 1601.71 1728.79 1555.01 1708.73C1504.3 1686.95 1456.39 1692.42 1409.9 1727.75Z" fill="#FDF5E5"/>
<path d="M2936 1548.26C2965.8 1548.7 2993.65 1547.15 3019.93 1548.96C3021.8 1550.68 3022.43 1551.06 3022.75 1551.61C3023.06 1552.15 3023.18 1552.87 3023.18 1553.52C3023.35 1722.7 3023.5 1891.89 3023.63 2061.07C3023.63 2064.37 3023.32 2067.67 3023.11 2071.94C3019.21 2072.72 3015.5 2074.1 3011.79 2074.11C2957.17 2074.29 2902.55 2074.32 2847.93 2074.25C2843.42 2074.25 2838.92 2073.32 2833.14 2072.69C2831.82 2036.81 2833.08 2001.67 2832.24 1966.37C2830.13 1965.47 2828.39 1964.09 2826.65 1964.09C2781.37 1963.97 2736.09 1963.99 2689.69 1963.99C2689.01 1967.58 2687.75 1971.28 2687.71 1974.99C2687.45 2000.3 2687.45 2025.61 2687.38 2050.93C2687.36 2057.54 2687.37 2064.16 2687.37 2069.96C2685.83 2071.16 2685.34 2071.58 2684.81 2071.95C2684.26 2072.32 2683.68 2072.93 2683.1 2072.94C2638.49 2073.62 2593.88 2074.31 2549.27 2074.86C2533.33 2075.06 2517.38 2074.89 2502.42 2074.89C2496.78 2068.74 2498.07 2062.43 2497.94 2056.65C2497.3 2027.35 2496.64 1998.05 2496.62 1968.74C2496.51 1862.16 2496.63 1755.58 2496.73 1649C2496.74 1641.82 2497.25 1634.64 2497.54 1627.04C2508.38 1623.31 2518.41 1624.96 2528.18 1624.58C2538.82 1624.17 2549.49 1624.41 2560.15 1624.4C2570.06 1624.38 2579.96 1624.39 2590.98 1624.39C2591.6 1619.68 2592.47 1615.94 2592.5 1612.2C2592.66 1596.21 2592.48 1580.22 2592.6 1564.24C2592.64 1559.76 2593.3 1555.28 2593.57 1552.12C2595.41 1550.47 2595.84 1549.93 2596.41 1549.63C2596.98 1549.32 2597.67 1549.19 2598.33 1549.11C2600.3 1548.89 2602.29 1548.59 2604.27 1548.58C2640.24 1548.42 2676.21 1548.22 2712.18 1548.2C2786.12 1548.16 2860.06 1548.23 2936 1548.26ZM2750.02 1697.12C2733.39 1697.14 2716.76 1697.04 2700.13 1697.26C2696.38 1697.31 2692.66 1698.45 2688.69 1699.13C2688.69 1739.95 2688.69 1779.79 2688.69 1820.28C2692.3 1820.88 2695.47 1821.87 2698.65 1821.87C2740.56 1821.77 2782.47 1821.56 2824.38 1821.24C2826.75 1821.22 2829.12 1819.91 2831.3 1819.27C2831.72 1816.34 2832.22 1814.42 2832.23 1812.49C2832.45 1777.24 2832.66 1741.98 2832.71 1706.72C2832.71 1703.7 2831.54 1700.68 2831.1 1698.58C2829.02 1697.67 2828.43 1697.19 2827.84 1697.19C2803.23 1697.14 2778.62 1697.13 2750.02 1697.12Z" fill="#FCF4E5"/>
<path d="M2440.56 1864C2440.49 1934.55 2440.44 2003.11 2440.4 2071.4C2421.05 2074.86 2278.6 2075.27 2260.94 2071.97C2258.69 2050.47 2259.58 2028.6 2259.31 2006.8C2259.04 1984.82 2259.28 1962.82 2259.33 1940.83C2259.38 1919.51 2259.48 1898.18 2259.57 1876.86C2259.66 1855.2 2259.94 1833.54 2259.69 1812.45C2256.9 1811.83 2256.3 1811.55 2255.73 1811.6C2255.09 1811.67 2254.37 1811.9 2253.88 1812.3C2252.33 1813.54 2250.81 1814.84 2249.38 1816.21C2220.03 1844.31 2190.7 1872.42 2161.34 1900.5C2160.9 1900.93 2160.14 1901.04 2158.02 1901.94C2141.42 1888.02 2125.42 1872.33 2109.01 1857.1C2092.43 1841.73 2075.94 1826.26 2057.99 1809.51C2056.67 1813.76 2055.06 1816.55 2055.05 1819.36C2054.89 1851.34 2055.01 1883.33 2055.01 1915.32C2055 1961.96 2054.96 2008.61 2054.94 2055.26C2054.93 2060.5 2054.94 2065.75 2054.94 2071.52C2050.51 2072.37 2047.37 2073.38 2044.18 2073.54C2003.29 2075.53 1890.54 2074.98 1874.07 2072.74C1870.06 2067.73 1871.92 2061.5 1871.92 2055.8C1871.87 1955.18 1872.03 1854.55 1872.07 1753.93C1872.09 1692.62 1871.97 1631.31 1871.99 1570.01C1872 1563.54 1872.56 1557.07 1872.82 1551.46C1875.46 1550.13 1876.61 1549.05 1877.76 1549.04C1935.73 1548.75 1993.69 1548.54 2051.65 1548.42C2053.51 1548.41 2055.37 1549.32 2058.3 1550.08C2061.37 1567.01 2057.98 1584.37 2060.73 1603.38C2091.45 1632.35 2123.28 1662.46 2156.6 1692.23C2160.98 1688.51 2164.54 1685.75 2167.81 1682.68C2191.6 1660.33 2214.93 1637.45 2239.28 1615.72C2250.72 1605.52 2255.97 1594.24 2254.8 1579.08C2254.09 1569.9 2255.04 1560.59 2255.28 1550.23C2259.3 1549.61 2262.37 1548.74 2265.44 1548.73C2321.41 1548.57 2377.39 1548.51 2433.36 1548.47C2434.64 1548.47 2435.91 1548.99 2437.58 1549.34C2442.58 1554.81 2440.28 1561.79 2440.29 1568.12C2440.5 1659.42 2440.51 1750.71 2440.57 1842.01C2440.57 1848.67 2440.57 1855.34 2440.56 1864Z" fill="#FCF4E5"/>
<path d="M3079.56 1976C3079.78 1834.02 3080 1694.03 3080.29 1554.05C3080.3 1552.91 3081.4 1551.78 3082.25 1550.14C3083.72 1549.69 3085.56 1548.63 3087.4 1548.63C3242.68 1548.55 3397.96 1548.56 3554.33 1548.56C3555.1 1551.8 3556.46 1554.82 3556.46 1557.84C3556.46 1669.84 3556.33 1781.84 3556.19 1893.83C3556.19 1895.12 3555.72 1896.4 3555.22 1898.96C3552 1899.58 3548.32 1900.86 3544.63 1900.88C3518.63 1901.09 3492.63 1901.04 3466.63 1901.07C3462.81 1901.08 3458.98 1901.07 3454.71 1901.07C3458.65 1913.86 3469.03 1928.53 3493.75 1957C3513.49 1960.84 3534.25 1957.16 3554.33 1960.01C3557.44 1978.08 3557.55 2055.39 3554.49 2072.62C3550.13 2072.99 3545.56 2073.7 3540.99 2073.72C3497.66 2073.96 3454.32 2073.69 3411 2074.48C3399.03 2074.69 3391.58 2070.25 3384.21 2061.25C3347.45 2016.41 3309.9 1972.21 3273.01 1927.47C3267.45 1920.73 3261.87 1918.64 3252.58 1922.02C3252.5 1938.07 3252.39 1954.63 3252.36 1971.19C3252.34 1987.85 3252.41 2004.52 3252.43 2021.19C3252.44 2037.81 3252.43 2054.42 3252.43 2071.58C3249.17 2072.52 3246.77 2073.81 3244.35 2073.82C3193.02 2074.22 3141.69 2074.49 3090.36 2074.71C3087.79 2074.72 3085.23 2074.06 3083.85 2073.87C3082.22 2072.63 3081.56 2072.32 3081.2 2071.8C3080.84 2071.28 3080.6 2070.56 3080.6 2069.92C3080.23 2039.28 3079.9 2008.64 3079.56 1976ZM3364.82 1708.69C3359.61 1705.79 3354.68 1702.12 3349.14 1700.13C3323.51 1690.88 3299.36 1693.86 3277.74 1710.93C3256.84 1727.45 3250.3 1754.57 3260.39 1779.2C3279.84 1826.7 3339.04 1828.15 3366.08 1805.14C3386.15 1788.06 3398.53 1754.76 3378.74 1724.1C3375.54 1719.14 3371.06 1715.01 3364.82 1708.69Z" fill="#FDF5E5"/>
<path d="M4236.12 1886.74C4231.47 1886.84 4228.81 1886.97 4224.81 1887.15C4224.24 1891.43 4223.19 1895.81 4223.17 1900.18C4222.99 1950.82 4222.99 2001.45 4222.88 2052.08C4222.86 2058.59 4222.49 2065.11 4222.28 2071.46C4219.37 2072.54 4217.55 2073.8 4215.73 2073.8C4163.77 2073.88 4111.81 2073.85 4059.85 2073.72C4058 2073.72 4056.15 2072.53 4054.42 2071.94C4051.88 2055.69 4051.11 1571.47 4053.7 1549.66C4071.77 1546.58 4090.29 1548.67 4108.69 1548.29C4127.33 1547.9 4145.99 1548.07 4164.64 1548.24C4183.15 1548.4 4201.69 1547.43 4221.29 1548.99C4223.17 1562.28 4222.52 1574.88 4222.76 1587.39C4223.02 1600.71 4222.91 1614.04 4222.92 1627.36C4222.92 1640.02 4222.83 1652.68 4222.83 1665.34C4222.84 1678.66 4222.79 1691.99 4222.98 1705.31C4223.15 1717.79 4222.66 1730.33 4223.84 1742.45C4240.17 1744.9 4322.31 1744.85 4343.71 1742.43C4344.08 1736.99 4344.79 1731.24 4344.82 1725.49C4345.14 1673.53 4345.3 1621.56 4345.62 1569.6C4345.66 1563.06 4344.53 1556.26 4347.95 1550.26C4365.71 1547.49 4496.25 1547.42 4513.19 1550.12C4513.64 1550.61 4514.21 1551.04 4514.51 1551.61C4514.81 1552.17 4514.96 1552.87 4514.96 1553.51C4515.14 1723.38 4515.31 1893.25 4515.43 2063.13C4515.43 2065.75 4514.95 2068.37 4514.62 2071.74C4511.37 2072.44 4508.25 2073.68 4505.11 2073.71C4455.81 2074.05 4406.51 2074.25 4357.22 2074.41C4354.02 2074.42 4350.83 2073.77 4346.43 2073.3C4345.94 2066.78 4345.12 2060.99 4345.14 2055.21C4345.32 2007.25 4345.66 1959.28 4345.93 1911.32C4345.98 1904.04 4345.94 1896.76 4345.94 1888.4C4340.92 1887.79 4336.49 1886.79 4332.05 1886.77C4300.74 1886.66 4269.43 1886.74 4236.12 1886.74Z" fill="#FBF3E4"/>
<path d="M4852.7 1576.56C4852.9 1566.76 4853.08 1558.88 4853.22 1552.72C4855.1 1550.58 4855.47 1549.96 4856.01 1549.61C4856.53 1549.27 4857.23 1549.03 4857.86 1549.01C4867.83 1548.72 4877.81 1548.28 4887.79 1548.26C4930.4 1548.18 4973.02 1548.22 5014.68 1548.22C5020.22 1553.4 5018.66 1559.03 5018.67 1564.14C5018.82 1647.44 5018.89 1730.74 5018.9 1814.04C5018.9 1844.69 5018.71 1875.35 5018.61 1906C5018.59 1912.63 5018.61 1919.26 5018.61 1927.07C5013.58 1927.77 5009.23 1928.88 5004.87 1928.9C4970.21 1929.13 4935.56 1929.15 4900.91 1929.23C4894.31 1929.25 4887.71 1929.23 4881.87 1929.23C4876.47 1936.23 4878.23 1943.14 4878.21 1949.6C4877.97 2010.25 4877.98 2070.89 4877.78 2131.53C4877.76 2138.08 4879.26 2144.86 4876.05 2151.11C4860.36 2153.3 4727.29 2153.38 4705.09 2151.08C4704.54 2146.4 4703.48 2141.38 4703.45 2136.35C4703.24 2086.38 4703.19 2036.4 4703.12 1986.42C4703.09 1968.46 4703.11 1950.49 4703.11 1931.43C4697.7 1930.57 4693.31 1929.28 4688.92 1929.27C4656.26 1929.19 4623.61 1929.37 4590.95 1929.45C4584.39 1929.47 4577.83 1929.46 4573.28 1929.46C4570.76 1927.62 4570.1 1927.33 4569.75 1926.83C4569.39 1926.31 4569.17 1925.58 4569.16 1924.94C4568.78 1843.66 4568.28 1762.37 4568.1 1681.09C4568.01 1637.85 4568.46 1594.61 4568.67 1550.75C4571.84 1549.81 4574.25 1548.47 4576.66 1548.47C4625.98 1548.31 4675.29 1548.29 4724.61 1548.34C4726.44 1548.34 4728.28 1549.25 4731.49 1550.1C4732.76 1577.27 4731.94 1604.43 4732.09 1631.56C4732.24 1658.88 4732.19 1686.21 4732.2 1713.53C4732.22 1740.73 4732.2 1767.94 4732.2 1793.39C4734.02 1795.63 4734.34 1796.27 4734.86 1796.6C4735.4 1796.94 4736.13 1797.12 4736.77 1797.12C4772.74 1797.23 4808.71 1797.33 4844.67 1797.34C4846.54 1797.34 4848.41 1796.53 4851.31 1795.85C4853.47 1772.07 4851.92 1748.22 4852.16 1724.43C4852.41 1699.78 4852.14 1675.12 4852.22 1650.46C4852.3 1626.47 4852.53 1602.48 4852.7 1576.56Z" fill="#FCF4E5"/>
<path d="M3784.75 1824C3784.75 1857.9 3784.75 1889.81 3784.75 1920.82C3789.93 1926.58 3795.59 1924.57 3800.63 1924.58C3858.61 1924.65 3916.59 1924.54 3974.57 1924.48C3981.19 1924.48 3987.81 1924.48 3994.15 1924.48C3997.86 1940.02 3998.87 2025.84 3996.06 2072.02C3992.65 2072.53 3988.96 2073.57 3985.27 2073.57C3867.31 2073.84 3749.35 2074.02 3631.39 2074.1C3625.56 2074.11 3619.31 2075.61 3612.85 2070.45C3612.25 1900.2 3611.97 1729.01 3612.54 1557.82C3612.55 1555.31 3613.3 1552.81 3613.87 1549.24C3619.01 1548.91 3623.5 1548.43 3627.99 1548.36C3766.12 1546.3 3976.66 1547.26 3995.33 1550C3997.23 1563.99 3997.62 1667.73 3995.82 1689.98C3989.42 1694.48 3981.83 1692.34 3974.81 1692.39C3918.83 1692.8 3862.85 1692.86 3806.87 1693.07C3800.3 1693.1 3793.73 1693.43 3786.71 1693.63C3782.98 1708.33 3785.14 1722.27 3784.79 1736.03C3784.42 1750.68 3784.71 1765.35 3784.72 1780.01C3784.72 1794.01 3784.74 1808 3784.75 1824Z" fill="#FCF4E5"/>
<path d="M2552.3 2355.97C2552.04 2371.95 2551.89 2385.95 2551.51 2399.93C2551.25 2409.47 2548.41 2418.25 2543.03 2426.2C2539.84 2430.92 2535.53 2433.71 2529.82 2434.06C2527.18 2434.22 2524.5 2434.04 2521.85 2433.92C2502.65 2433.08 2483.45 2432.22 2463.14 2431.32C2460.95 2417.53 2458.89 2404.6 2456.71 2390.9C2471.34 2385.69 2486.41 2391.85 2501.08 2386.61C2501.92 2384.8 2503.94 2382.47 2503.96 2380.12C2504.17 2348.86 2504.1 2317.59 2504.1 2286.31C2500.03 2284.21 2498.06 2287.33 2496.13 2289.82C2490.85 2296.68 2485.76 2303.7 2480.59 2310.65C2453.25 2347.47 2418.96 2376.62 2380.06 2402.59C2373.78 2397.14 2367.72 2392.18 2362.03 2386.82C2356.33 2381.46 2349.18 2377.46 2344.57 2368.97C2388.75 2342.56 2427.64 2310.63 2457.35 2268.62C2458.71 2266.69 2458.99 2264 2460.2 2260.41C2447.89 2257.74 2436.68 2259.35 2425.63 2259.01C2414.98 2258.69 2404.3 2259.02 2393.64 2258.83C2382.48 2258.62 2371.2 2259.78 2359.17 2257.28C2356.31 2243.41 2356.61 2230.43 2358.29 2216.75C2373.75 2212.67 2389.01 2215.58 2404.14 2215.52C2420.13 2215.45 2436.13 2215.54 2452.12 2215.55C2467.36 2215.56 2482.6 2215.56 2499.01 2215.56C2499.91 2210.13 2501 2205.82 2501.28 2201.45C2502.01 2190.29 2500.1 2178.98 2502.68 2166.71C2517.41 2163.5 2531.8 2164.53 2547.18 2165.52C2548.3 2169.38 2550.01 2172.97 2550.29 2176.66C2550.94 2185.29 2550.8 2193.98 2551.21 2202.63C2551.39 2206.45 2552.12 2210.24 2552.76 2215.25C2578.74 2217.34 2603.96 2214.7 2629.69 2216.43C2634.65 2229.74 2631.95 2242.83 2631.65 2256.81C2627.66 2257.73 2623.98 2259.28 2620.3 2259.31C2604.97 2259.42 2589.65 2258.98 2574.32 2258.93C2567.78 2258.9 2561.24 2259.32 2554.08 2259.55C2550.19 2276.31 2552.75 2292.24 2552.36 2307.99C2551.98 2323.31 2552.29 2338.65 2552.3 2355.97Z" fill="#E3342F"/>
<path d="M3465.45 2434.96C3452.5 2435.05 3441.22 2435.05 3428.96 2435.05C3427.4 2430.18 3425.44 2426.03 3424.81 2421.7C3422.9 2408.52 3421.63 2395.25 3419.85 2382.05C3418.97 2375.57 3419.31 2368.66 3413.77 2362.07C3377.46 2364.89 3340.63 2368.81 3303.1 2374.26C3297.21 2360.32 3295.28 2346.11 3292.93 2331.32C3305.76 2326.59 3318.59 2327.91 3330.89 2325.97C3344.03 2323.91 3357.43 2323.57 3370.64 2321.9C3382.97 2320.33 3395.81 2321.41 3408.35 2316.39C3409.7 2299.47 3405.31 2284.31 3402.84 2267.65C3384.76 2268.97 3368.29 2270.81 3351.79 2271.18C3335.38 2271.55 3318.9 2275.7 3301.41 2271.7C3300.37 2258.12 3299.37 2245.07 3298.32 2231.2C3315.18 2227.3 3331.9 2229.26 3348.2 2227.14C3363.89 2225.1 3380 2226.53 3395.8 2222.02C3396.96 2203.38 3389.07 2186.35 3389 2167.65C3404.75 2164.57 3419.74 2164.83 3434.98 2165.89C3442.49 2182.26 3437.85 2200.8 3446.3 2217.67C3476.16 2216.69 3505.34 2209.96 3535.13 2206.39C3541.57 2219.85 3542.91 2233.68 3547.3 2247.73C3530.97 2253.69 3514.95 2253.38 3499.39 2255.45C3483.64 2257.55 3467.8 2259.04 3451.31 2260.87C3449.49 2278.71 3454.13 2294.43 3457.57 2311.72C3491.54 2310.29 3524.2 2304.81 3558.21 2300.7C3564.05 2314.16 3562.64 2328.17 3565.8 2342.23C3553.84 2347.28 3542.4 2345.98 3531.42 2347.24C3520.84 2348.46 3510.2 2349.28 3499.58 2350.2C3488.38 2351.17 3477.17 2352.07 3465.31 2353.05C3463.95 2367.36 3468.19 2380.08 3470.22 2392.98C3472.17 2405.41 3475.14 2417.68 3477.93 2431.34C3474.14 2432.58 3470.63 2433.73 3465.45 2434.96Z" fill="#E3342F"/>
<path d="M2865.83 2243.6C2804.21 2243.6 2744.35 2243.6 2684.01 2243.6C2678.78 2229.2 2681.58 2215.47 2681.95 2200.69C2686.78 2199.89 2691.17 2198.57 2695.56 2198.53C2732.17 2198.18 2768.77 2198.05 2805.37 2197.89C2838.65 2197.75 2871.93 2197.7 2905.2 2197.47C2911.82 2197.43 2918.43 2196.77 2925.55 2196.37C2930.94 2200.92 2936.55 2205.54 2942.03 2210.32C2947.48 2215.07 2953.66 2219.18 2957.46 2226.35C2941.11 2248.48 2925.09 2270.59 2906.21 2290.24C2887.38 2309.83 2867.41 2328.33 2846.97 2348.26C2859.09 2365.32 2875.13 2379.43 2887.7 2397.62C2877.24 2409.85 2863.78 2418.1 2851.23 2429.52C2838.18 2414.42 2826.37 2399.44 2813.15 2385.82C2799.75 2372 2785.22 2359.22 2770.7 2346.54C2756.21 2333.88 2741.1 2321.92 2725.82 2309.28C2727.86 2301.52 2735.56 2298.82 2740.16 2293.5C2744.42 2288.57 2749.35 2284.23 2754.24 2279.37C2773 2292.47 2790.93 2304.99 2809.53 2317.97C2812.46 2316.46 2815.61 2315.41 2818.04 2313.47C2838.91 2296.74 2857.14 2277.38 2873.85 2256.58C2875.89 2254.04 2877.24 2250.94 2878.79 2248.03C2879.01 2247.62 2878.55 2246.84 2878.38 2246.07C2875.54 2242.33 2871.3 2244.09 2865.83 2243.6Z" fill="#E3342F"/>
<path d="M3068.01 2283.93C3125.75 2284.63 3181.52 2283.26 3238.37 2284.4C3241.26 2300.26 3242.14 2314.97 3239.66 2329.66C3221.9 2332.47 3095.77 2333.43 3017.62 2331.42C3013.11 2331.3 3008.62 2330.46 3004.56 2330.01C2999.93 2314.66 2999.52 2302.56 3003.08 2285.33C3023.77 2282.75 3044.94 2284.49 3068.01 2283.93Z" fill="#E3342F"/>
<path d="M3616.04 2296.93C3615.89 2289.02 3617.8 2284.66 3624.79 2284.51C3628.11 2284.44 3631.44 2284.35 3634.76 2284.34C3703.19 2284.2 3771.63 2284.05 3840.06 2283.98C3843.95 2283.97 3847.85 2284.63 3852.15 2285.02C3856.96 2299.74 3853.67 2314.15 3854.63 2329.41C3850.34 2330.35 3847.29 2331.59 3844.24 2331.59C3772.48 2331.64 3700.72 2331.56 3628.97 2331.44C3625.74 2331.43 3622.52 2330.77 3618.54 2330.33C3614.41 2319.8 3616.81 2309.12 3616.04 2296.93Z" fill="#E3342F"/>
<path d="M1410.98 1726.8C1456.39 1692.42 1504.3 1686.95 1555.01 1708.73C1601.71 1728.79 1631.26 1776.34 1628.94 1826.28C1627.54 1856.4 1614.21 1881.81 1593.64 1902.48C1535.44 1960.95 1441.72 1954.83 1390.89 1891.63C1358.31 1851.12 1361.02 1786.63 1391.23 1748.49C1397 1741.21 1403.66 1734.64 1410.98 1726.8Z" fill="#EC3731"/>
<path d="M2752.02 1697.11C2778.62 1697.13 2803.23 1697.14 2827.84 1697.19C2828.43 1697.19 2829.02 1697.67 2831.1 1698.58C2831.54 1700.68 2832.71 1703.7 2832.71 1706.72C2832.66 1741.98 2832.45 1777.24 2832.23 1812.49C2832.22 1814.42 2831.72 1816.34 2831.3 1819.27C2829.12 1819.91 2826.75 1821.22 2824.38 1821.24C2782.47 1821.56 2740.56 1821.77 2698.65 1821.87C2695.47 1821.87 2692.3 1820.88 2688.69 1820.28C2688.69 1779.79 2688.69 1739.95 2688.69 1699.13C2692.65 1698.45 2696.38 1697.31 2700.13 1697.26C2716.76 1697.04 2733.39 1697.14 2752.02 1697.11Z" fill="black"/>
<path d="M3366 1709.59C3371.06 1715.01 3375.54 1719.14 3378.74 1724.1C3398.53 1754.76 3386.15 1788.06 3366.08 1805.14C3339.04 1828.15 3279.84 1826.7 3260.39 1779.2C3250.3 1754.57 3256.84 1727.45 3277.74 1710.93C3299.36 1693.86 3323.51 1690.88 3349.14 1700.13C3354.68 1702.12 3359.61 1705.79 3366 1709.59Z" fill="#EC3731"/>
</g>
<defs>
<clipPath id="clip0_2_122">
<rect width="6144" height="4096" fill="white"/>
</clipPath>
</defs>
</svg>
