<svg version="1.1" id="Layer_1" xmlns="http://www.w3.org/2000/svg" xmlns:xlink="http://www.w3.org/1999/xlink" x="0px" y="0px"
	 width="100%" viewBox="0 0 6144 4096" enable-background="new 0 0 6144 4096" xml:space="preserve">
<path fill="#000000" opacity="1.000000" stroke="none" 
	d="
M3988.000000,4100.000000 
	C2658.666748,4100.000000 1331.333374,4100.000000 4.000000,4100.000000 
	C4.000000,2734.666748 4.000000,1369.333374 4.000000,4.000001 
	C2052.000000,4.000000 4100.000000,4.000000 6148.000000,4.000000 
	C6148.000000,1369.333374 6148.000000,2734.666748 6148.000000,4100.000000 
	C5428.666504,4100.000000 4709.333496,4100.000000 3988.000000,4100.000000 
M1345.170410,2125.625488 
	C1348.452148,2126.030762 1351.733521,2126.787354 1355.015503,2126.789551 
	C1450.979248,2126.854004 1546.942993,2126.854492 1642.906738,2126.793945 
	C1645.999756,2126.791992 1649.092285,2126.040527 1652.957764,2125.538086 
	C1653.225830,2117.744141 1653.603516,2111.190674 1653.647705,2104.634766 
	C1653.773438,2085.976074 1653.624390,2067.314697 1653.925415,2048.659668 
	C1653.984619,2044.993164 1655.576172,2041.351318 1656.576782,2037.219116 
	C1664.156982,2037.219116 1670.801025,2037.176514 1677.444336,2037.226074 
	C1716.760498,2037.518799 1756.076416,2037.921387 1795.393066,2038.051270 
	C1801.817139,2038.072388 1808.753174,2039.996460 1815.373901,2034.367554 
	C1815.373901,2029.702148 1815.383057,2024.411743 1815.372314,2019.121338 
	C1815.255005,1961.143433 1815.039307,1903.165649 1815.038086,1845.187744 
	C1815.036499,1769.216431 1815.248413,1693.245239 1815.224365,1617.273926 
	C1815.222168,1610.224976 1816.459106,1602.879639 1813.327881,1595.234009 
	C1804.711670,1594.965332 1796.797485,1594.520996 1788.882446,1594.505127 
	C1749.564453,1594.426636 1710.245728,1594.523071 1670.927979,1594.379272 
	C1665.872559,1594.360840 1660.820923,1593.302002 1654.700562,1592.603394 
	C1654.489136,1578.148560 1654.505493,1564.926270 1654.044800,1551.720459 
	C1653.563110,1537.912964 1655.398071,1523.929321 1651.982178,1510.262817 
	C1649.365601,1509.786133 1647.448730,1509.130615 1645.532349,1509.131958 
	C1546.251099,1509.202271 1446.969849,1509.327148 1347.688599,1509.472168 
	C1347.050415,1509.473145 1346.361938,1509.740967 1345.789429,1510.053589 
	C1345.244141,1510.351440 1344.820190,1510.871338 1342.973389,1512.505249 
	C1341.391357,1525.001587 1342.747681,1538.931519 1342.152588,1552.763306 
	C1341.562744,1566.471313 1343.901489,1580.425415 1340.078247,1595.042114 
	C1325.755981,1595.042114 1312.554810,1595.073486 1299.353882,1595.033325 
	C1286.025757,1594.992798 1272.697876,1594.846436 1259.369751,1594.810303 
	C1245.375122,1594.772217 1231.371338,1594.499390 1217.388184,1594.904297 
	C1204.187500,1595.286377 1190.836548,1593.419678 1177.468628,1596.673584 
	C1177.110352,1599.656006 1176.521118,1602.272339 1176.521362,1604.888672 
	C1176.535034,1748.151489 1176.597046,1891.414185 1176.679810,2034.677002 
	C1176.680176,2035.297485 1176.953613,2035.971558 1177.269775,2036.522949 
	C1177.594849,2037.089966 1178.128784,2037.537354 1179.421753,2038.997681 
	C1185.172119,2039.163086 1191.702759,2039.490723 1198.234375,2039.515869 
	C1240.884155,2039.680908 1283.534790,2039.724487 1326.183960,2039.974976 
	C1331.223755,2040.004517 1336.257446,2041.049316 1342.374878,2041.746704 
	C1342.374878,2049.702881 1342.326660,2056.300293 1342.383789,2062.896729 
	C1342.556763,2082.867676 1342.770630,2102.838135 1345.170410,2125.625488 
M2934.000000,1548.259399 
	C2860.060059,1548.233154 2786.119873,1548.163452 2712.179932,1548.199219 
	C2676.209961,1548.216675 2640.239746,1548.422974 2604.269775,1548.578735 
	C2602.288086,1548.587402 2600.304688,1548.893188 2598.328369,1549.114624 
	C2597.672852,1549.188232 2596.979248,1549.323242 2596.406982,1549.626343 
	C2595.842773,1549.925659 2595.409668,1550.473022 2593.565186,1552.122070 
	C2593.300781,1555.281982 2592.638428,1559.757324 2592.603027,1564.237793 
	C2592.477295,1580.223755 2592.655029,1596.212036 2592.504395,1612.197510 
	C2592.468750,1615.941284 2591.595703,1619.677124 2590.980469,1624.391724 
	C2579.961914,1624.391724 2570.055420,1624.378052 2560.148926,1624.395386 
	C2549.490967,1624.414062 2538.822021,1624.171265 2528.178711,1624.582153 
	C2518.407715,1624.959595 2508.376221,1623.306396 2497.535645,1627.043579 
	C2497.245605,1634.642822 2496.739014,1641.822998 2496.732422,1649.003662 
	C2496.634277,1755.582520 2496.508789,1862.161377 2496.615479,1968.740112 
	C2496.645020,1998.045776 2497.303467,2027.353149 2497.940430,2056.654053 
	C2498.066162,2062.430908 2496.783447,2068.738281 2502.422852,2074.890869 
	C2517.379395,2074.890869 2533.327393,2075.055176 2549.271240,2074.859619 
	C2593.883301,2074.312744 2638.493164,2073.620850 2683.103271,2072.937988 
	C2683.679932,2072.929443 2684.263916,2072.320312 2684.813232,2071.945312 
	C2685.341064,2071.584717 2685.828613,2071.164551 2687.374512,2069.958740 
	C2687.374512,2064.158203 2687.357910,2057.542236 2687.377197,2050.926514 
	C2687.451416,2025.614136 2687.453369,2000.300903 2687.709473,1974.990356 
	C2687.747070,1971.281006 2689.014404,1967.584106 2689.691406,1963.992798 
	C2736.091309,1963.992798 2781.370117,1963.968140 2826.648682,1964.086670 
	C2828.392578,1964.091187 2830.133057,1965.474487 2832.244629,1966.372681 
	C2833.078369,2001.667480 2831.819824,2036.806396 2833.140381,2072.688477 
	C2838.918457,2073.324951 2843.421875,2074.247070 2847.926270,2074.252197 
	C2902.547607,2074.315430 2957.169434,2074.286621 3011.790283,2074.111816 
	C3015.500732,2074.099854 3019.206787,2072.724854 3023.112061,2071.944580 
	C3023.322754,2067.668945 3023.629883,2064.370850 3023.627441,2061.072510 
	C3023.502441,1891.887939 3023.351318,1722.703369 3023.184814,1553.518799 
	C3023.184082,1552.875000 3023.059082,1552.152954 3022.745605,1551.609619 
	C3022.427734,1551.058228 3021.803955,1550.683350 3019.933105,1548.956543 
	C2993.646729,1547.149414 2965.800537,1548.699829 2934.000000,1548.259399 
M2440.573730,1862.000244 
	C2440.570801,1855.335815 2440.569092,1848.671509 2440.565186,1842.007080 
	C2440.510254,1750.711792 2440.504395,1659.416382 2440.293945,1568.121460 
	C2440.279541,1561.790771 2442.584961,1554.807983 2437.579590,1549.344360 
	C2435.908936,1548.985474 2434.636719,1548.472656 2433.364990,1548.473511 
	C2377.390137,1548.510254 2321.415039,1548.570312 2265.440430,1548.729004 
	C2262.367920,1548.737671 2259.298096,1549.613037 2255.276123,1550.231201 
	C2255.044922,1560.588745 2254.093262,1569.898804 2254.799805,1579.081055 
	C2255.966553,1594.240479 2250.718018,1605.517822 2239.281006,1615.724609 
	C2214.932129,1637.454712 2191.604736,1660.328247 2167.808350,1682.679565 
	C2164.539307,1685.750122 2160.981201,1688.512817 2156.602783,1692.227783 
	C2123.281982,1662.457031 2091.455078,1632.345337 2060.734863,1603.384277 
	C2057.979004,1584.365356 2061.371826,1567.008911 2058.298096,1550.080200 
	C2055.374512,1549.320679 2053.511963,1548.411133 2051.651855,1548.415283 
	C1993.689087,1548.544678 1935.726562,1548.753296 1877.764404,1549.039917 
	C1876.611816,1549.045532 1875.464478,1550.125488 1872.817871,1551.457764 
	C1872.556396,1557.071289 1871.996460,1563.539307 1871.993774,1570.007690 
	C1871.967896,1631.314819 1872.091064,1692.622070 1872.066284,1753.929199 
	C1872.025513,1854.553833 1871.869873,1955.178345 1871.916870,2055.802979 
	C1871.919556,2061.502197 1870.061768,2067.733398 1874.066650,2072.738037 
	C1890.537354,2074.976074 2003.285400,2075.530762 2044.175415,2073.538330 
	C2047.365967,2073.383057 2050.514893,2072.372559 2054.935547,2071.517090 
	C2054.935547,2065.746826 2054.933105,2060.501953 2054.936035,2055.256836 
	C2054.961426,2008.609619 2055.003906,1961.962402 2055.007812,1915.315186 
	C2055.010254,1883.328613 2054.894531,1851.341797 2055.046631,1819.356079 
	C2055.060059,1816.554199 2056.671387,1813.759888 2057.991455,1809.511475 
	C2075.941162,1826.262573 2092.435059,1841.727661 2109.010986,1857.103760 
	C2125.420654,1872.325195 2141.420410,1888.020996 2158.019531,1901.940430 
	C2160.144043,1901.036865 2160.895264,1900.925537 2161.343262,1900.497070 
	C2190.700439,1872.415527 2220.030518,1844.305664 2249.375977,1816.211914 
	C2250.811035,1814.838013 2252.327881,1813.542358 2253.879395,1812.301147 
	C2254.374756,1811.904785 2255.091553,1811.669434 2255.731689,1811.603882 
	C2256.297607,1811.546143 2256.898193,1811.827271 2259.691406,1812.454590 
	C2259.939941,1833.535645 2259.660400,1855.200073 2259.568848,1876.859131 
	C2259.478516,1898.183350 2259.384521,1919.507446 2259.332031,1940.831665 
	C2259.278076,1962.822266 2259.041016,1984.815552 2259.310547,2006.802490 
	C2259.578125,2028.604492 2258.688965,2050.469482 2260.945068,2071.974121 
	C2278.604736,2075.270264 2421.052734,2074.863525 2440.395752,2071.404541 
	C2440.444824,2003.109375 2440.493896,1934.554810 2440.573730,1862.000244 
M3079.560547,1977.999878 
	C3079.897949,2008.639282 3080.232178,2039.278564 3080.596924,2069.917725 
	C3080.604492,2070.556885 3080.835449,2071.282959 3081.198730,2071.803467 
	C3081.561035,2072.323242 3082.221436,2072.634766 3083.847412,2073.871338 
	C3085.225098,2074.059326 3087.792969,2074.723877 3090.357422,2074.713135 
	C3141.688721,2074.492432 3193.020264,2074.221191 3244.350342,2073.823975 
	C3246.765137,2073.805176 3249.169678,2072.521729 3252.430176,2071.581787 
	C3252.430176,2054.424805 3252.440674,2037.805664 3252.427490,2021.186646 
	C3252.414062,2004.520142 3252.337158,1987.853516 3252.362061,1971.187012 
	C3252.386719,1954.627563 3252.503662,1938.068237 3252.577881,1922.024780 
	C3261.873779,1918.637329 3267.452881,1920.733154 3273.006836,1927.468628 
	C3309.899658,1972.207397 3347.449463,2016.405029 3384.208008,2061.252441 
	C3391.584717,2070.252686 3399.029541,2074.691895 3410.997070,2074.475586 
	C3454.318359,2073.692383 3497.657959,2073.955322 3540.989990,2073.720459 
	C3545.559570,2073.695557 3550.125244,2072.990723 3554.489014,2072.618896 
	C3557.548584,2055.389893 3557.444092,1978.084106 3554.328613,1960.010742 
	C3534.247070,1957.162598 3513.485352,1960.842896 3493.753174,1956.998657 
	C3469.026611,1928.527954 3458.654053,1913.857788 3454.709229,1901.071533 
	C3458.981689,1901.071533 3462.807373,1901.075317 3466.633057,1901.070923 
	C3492.632812,1901.040771 3518.633057,1901.091187 3544.631348,1900.884766 
	C3548.319092,1900.855591 3551.996826,1899.575195 3555.219971,1898.961304 
	C3555.719727,1896.397095 3556.187256,1895.115723 3556.188965,1893.833862 
	C3556.332275,1781.836792 3556.457031,1669.839722 3556.458984,1557.842651 
	C3556.459229,1554.819214 3555.104492,1551.795898 3554.330811,1548.559204 
	C3397.963135,1548.559204 3242.680664,1548.553223 3087.398193,1548.629639 
	C3085.557129,1548.630493 3083.716553,1549.692261 3082.253662,1550.142456 
	C3081.400635,1551.781494 3080.296631,1552.913818 3080.294189,1554.048584 
	C3079.996094,1694.032227 3079.779297,1834.015991 3079.560547,1977.999878 
M4238.115723,1886.766602 
	C4269.427734,1886.744507 4300.739258,1886.657959 4332.050781,1886.773193 
	C4336.487305,1886.789429 4340.920410,1887.786133 4345.941406,1888.400879 
	C4345.941406,1896.762573 4345.976562,1904.039673 4345.935059,1911.316284 
	C4345.660645,1959.281128 4345.322266,2007.245728 4345.145020,2055.210938 
	C4345.123535,2060.993896 4345.943359,2066.780029 4346.427734,2073.297852 
	C4350.832031,2073.769775 4354.024902,2074.418213 4357.216309,2074.408203 
	C4406.514648,2074.252686 4455.812988,2074.047852 4505.110352,2073.705566 
	C4508.245117,2073.683838 4511.371094,2072.439697 4514.622070,2071.738037 
	C4514.950684,2068.375000 4515.433105,2065.749756 4515.431152,2063.125244 
	C4515.305664,1893.252197 4515.142090,1723.379150 4514.963379,1553.506104 
	C4514.962402,1552.867920 4514.807617,1552.167114 4514.511230,1551.608887 
	C4514.208984,1551.039429 4513.642578,1550.610352 4513.191406,1550.119995 
	C4496.253906,1547.421143 4365.713379,1547.487061 4347.948242,1550.259521 
	C4344.533203,1556.264893 4345.659668,1563.062012 4345.619141,1569.602173 
	C4345.296387,1621.564575 4345.137695,1673.528076 4344.822266,1725.490601 
	C4344.787598,1731.243652 4344.081543,1736.992676 4343.708496,1742.431519 
	C4322.312988,1744.852539 4240.170898,1744.902100 4223.837891,1742.448120 
	C4222.664062,1730.331787 4223.153809,1717.792236 4222.978516,1705.308105 
	C4222.791504,1691.986206 4222.836914,1678.660522 4222.832520,1665.336548 
	C4222.828125,1652.678711 4222.919922,1640.020996 4222.916504,1627.363159 
	C4222.912598,1614.039307 4223.015137,1600.712158 4222.757812,1587.392578 
	C4222.516113,1574.880249 4223.166504,1562.282471 4221.288086,1548.993530 
	C4201.693359,1547.429688 4183.146973,1548.403198 4164.643555,1548.237671 
	C4145.991211,1548.070679 4127.330566,1547.899048 4108.685059,1548.288086 
	C4090.294922,1548.671997 4071.765625,1546.577148 4053.696777,1549.655151 
	C4051.112793,1571.469604 4051.878906,2055.688232 4054.423096,2071.944824 
	C4056.149414,2072.534668 4057.998779,2073.715332 4059.851074,2073.719971 
	C4111.809570,2073.848389 4163.768066,2073.878906 4215.726562,2073.802490 
	C4217.547363,2073.799805 4219.366211,2072.541748 4222.283203,2071.463135 
	C4222.487305,2065.107422 4222.864258,2058.593506 4222.878906,2052.078369 
	C4222.990723,2001.446899 4222.990234,1950.815308 4223.169922,1900.184204 
	C4223.185547,1895.805664 4224.244141,1891.430664 4224.805664,1887.149170 
	C4228.811035,1886.965454 4231.466797,1886.843628 4238.115723,1886.766602 
M4852.690918,1578.485596 
	C4852.527832,1602.476440 4852.298340,1626.467163 4852.221191,1650.458252 
	C4852.141602,1675.115479 4852.408203,1699.775146 4852.159668,1724.430054 
	C4851.919922,1748.222290 4853.466309,1772.073364 4851.308105,1795.850220 
	C4848.405273,1796.526367 4846.540039,1797.339600 4844.674316,1797.338989 
	C4808.707520,1797.328735 4772.741211,1797.226074 4736.774414,1797.116943 
	C4736.128906,1797.114990 4735.399902,1796.936279 4734.863770,1796.596924 
	C4734.342773,1796.268066 4734.019531,1795.625610 4732.204102,1793.389160 
	C4732.204102,1767.939575 4732.216309,1740.734741 4732.201172,1713.529907 
	C4732.186523,1686.206787 4732.237793,1658.883057 4732.087402,1631.560547 
	C4731.938477,1604.431396 4732.761719,1577.272705 4731.493164,1550.102661 
	C4728.281250,1549.250854 4726.443848,1548.339844 4724.605469,1548.338135 
	C4675.291016,1548.293457 4625.976074,1548.312012 4576.662109,1548.466187 
	C4574.248535,1548.473633 4571.838867,1549.805664 4568.671387,1550.745117 
	C4568.461914,1594.607910 4568.007812,1637.850098 4568.102539,1681.091064 
	C4568.280762,1762.373657 4568.774902,1843.655762 4569.162598,1924.937866 
	C4569.165527,1925.577271 4569.389160,1926.306396 4569.750000,1926.827148 
	C4570.098633,1927.329834 4570.758789,1927.617188 4573.278809,1929.457153 
	C4577.827637,1929.457153 4584.391113,1929.472290 4590.954590,1929.454468 
	C4623.608398,1929.365601 4656.262207,1929.188477 4688.916016,1929.268188 
	C4693.308105,1929.278809 4697.697754,1930.568481 4703.111328,1931.428345 
	C4703.111328,1950.494995 4703.087891,1968.455078 4703.115234,1986.415161 
	C4703.191895,2036.395142 4703.239746,2086.375488 4703.453613,2136.354980 
	C4703.475098,2141.379395 4704.544434,2146.399170 4705.088379,2151.083496 
	C4727.288086,2153.382812 4860.356934,2153.299316 4876.052734,2151.114258 
	C4879.260742,2144.861572 4877.756836,2138.084961 4877.777832,2131.534424 
	C4877.975098,2070.891113 4877.973145,2010.246704 4878.208496,1949.603394 
	C4878.233398,1943.144653 4876.466797,1936.233887 4881.874023,1929.234863 
	C4887.711914,1929.234863 4894.309570,1929.247803 4900.907227,1929.232666 
	C4935.561035,1929.153442 4970.214844,1929.129517 5004.867676,1928.904419 
	C5009.225586,1928.876099 5013.576660,1927.773926 5018.609375,1927.074951 
	C5018.609375,1919.261841 5018.591797,1912.633057 5018.612793,1906.004272 
	C5018.708008,1875.349487 5018.904297,1844.694824 5018.899902,1814.040039 
	C5018.889160,1730.739502 5018.822754,1647.438965 5018.666992,1564.138550 
	C5018.657227,1559.029053 5020.215332,1553.398438 5014.678223,1548.224854 
	C4973.020996,1548.224854 4930.403809,1548.177856 4887.786621,1548.259644 
	C4877.809082,1548.278809 4867.832520,1548.724731 4857.856445,1549.012573 
	C4857.227539,1549.030640 4856.531250,1549.265259 4856.005859,1549.611328 
	C4855.469238,1549.964478 4855.104004,1550.579102 4853.218750,1552.721191 
	C4853.077148,1558.881104 4852.895996,1566.757568 4852.690918,1578.485596 
M3784.751465,1822.000366 
	C3784.739258,1808.004761 3784.723145,1794.009033 3784.715820,1780.013428 
	C3784.708252,1765.351562 3784.421631,1750.682617 3784.790527,1736.030029 
	C3785.136963,1722.266357 3782.985107,1708.325195 3786.706543,1693.626343 
	C3793.729980,1693.426270 3800.300293,1693.099243 3806.871582,1693.073975 
	C3862.852539,1692.859009 3918.834229,1692.804443 3974.813477,1692.389282 
	C3981.833740,1692.337280 3989.419434,1694.482178 3995.820068,1689.977173 
	C3997.619141,1667.734985 3997.228760,1563.991943 3995.334961,1549.997192 
	C3976.655273,1547.259399 3766.122314,1546.300293 3627.992920,1548.363159 
	C3623.497559,1548.430176 3619.008545,1548.911987 3613.868408,1549.241943 
	C3613.296143,1552.807617 3612.548340,1555.314819 3612.539795,1557.824341 
	C3611.965820,1729.012939 3612.254883,1900.199341 3612.849609,2070.451660 
	C3619.312744,2075.608398 3625.556396,2074.108887 3631.387207,2074.104980 
	C3749.347412,2074.024170 3867.307617,2073.836670 3985.267578,2073.574951 
	C3988.959961,2073.566650 3992.650146,2072.532959 3996.055664,2072.020264 
	C3998.871826,2025.835693 3997.855957,1940.019287 3994.149170,1924.481934 
	C3987.807129,1924.481934 3981.187988,1924.476318 3974.568848,1924.482788 
	C3916.588379,1924.539795 3858.607666,1924.645630 3800.627197,1924.575439 
	C3795.592041,1924.569336 3789.927979,1926.583618 3784.750977,1920.820312 
	C3784.750977,1889.807861 3784.750977,1857.904175 3784.751465,1822.000366 
M2552.301270,2353.975586 
	C2552.293457,2338.646973 2551.981445,2323.310791 2552.362549,2307.991943 
	C2552.754639,2292.239014 2550.186523,2276.313232 2554.075928,2259.551025 
	C2561.235596,2259.315674 2567.778564,2258.901611 2574.319824,2258.925781 
	C2589.645996,2258.982178 2604.972900,2259.416992 2620.296387,2259.307129 
	C2623.984863,2259.280762 2627.662109,2257.728760 2631.645996,2256.808594 
	C2631.947754,2242.829102 2634.650879,2229.736572 2629.687988,2216.429199 
	C2603.957275,2214.696533 2578.735107,2217.336670 2552.758301,2215.249268 
	C2552.123291,2210.237549 2551.390625,2206.445801 2551.210205,2202.627686 
	C2550.801514,2193.975830 2550.942139,2185.290039 2550.287598,2176.661377 
	C2550.007568,2172.968018 2548.301514,2169.382568 2547.176270,2165.516602 
	C2531.796875,2164.526855 2517.409180,2163.499756 2502.680664,2166.708740 
	C2500.096924,2178.979004 2502.011719,2190.291992 2501.284668,2201.451660 
	C2501.000244,2205.819336 2499.912109,2210.134521 2499.010010,2215.555908 
	C2482.598389,2215.555908 2467.359131,2215.563477 2452.120117,2215.553711 
	C2436.125488,2215.543701 2420.130615,2215.449219 2404.136230,2215.517090 
	C2389.010254,2215.581543 2373.754883,2212.674561 2358.293701,2216.754639 
	C2356.614014,2230.431396 2356.306885,2243.413574 2359.170410,2257.278809 
	C2371.196289,2259.776123 2382.482178,2258.620117 2393.643555,2258.826416 
	C2404.303467,2259.023193 2414.975830,2258.693359 2425.630127,2259.014404 
	C2436.682129,2259.347656 2447.892822,2257.744385 2460.204102,2260.409424 
	C2458.994629,2264.000488 2458.710205,2266.694336 2457.345215,2268.624512 
	C2427.639404,2310.631836 2388.750244,2342.557129 2344.572266,2368.966064 
	C2349.178467,2377.464844 2356.334473,2381.462402 2362.028564,2386.822266 
	C2367.718506,2392.178223 2373.783936,2397.135498 2380.055908,2402.590332 
	C2418.960938,2376.617676 2453.247803,2347.469482 2480.593994,2310.651855 
	C2485.759277,2303.697998 2490.846924,2296.684570 2496.132568,2289.823242 
	C2498.056641,2287.325928 2500.026611,2284.205811 2504.096680,2286.309082 
	C2504.096680,2317.586182 2504.166260,2348.855469 2503.955811,2380.122803 
	C2503.939941,2382.467041 2501.921143,2384.797852 2501.076416,2386.612793 
	C2486.408936,2391.854004 2471.340088,2385.693848 2456.712891,2390.901855 
	C2458.890137,2404.600586 2460.945801,2417.534180 2463.136719,2431.319336 
	C2483.446045,2432.222656 2502.646240,2433.083984 2521.847168,2433.922363 
	C2524.504395,2434.038330 2527.177246,2434.220459 2529.823730,2434.059082 
	C2535.527588,2433.712158 2539.841797,2430.922852 2543.034912,2426.201904 
	C2548.410645,2418.254150 2551.253174,2409.471436 2551.512695,2399.933105 
	C2551.892822,2385.945312 2552.042236,2371.951416 2552.301270,2353.975586 
M3467.120117,2434.876709 
	C3470.628418,2433.728516 3474.136475,2432.580078 3477.932861,2431.337646 
	C3475.139893,2417.677002 3472.168701,2405.407715 3470.218018,2392.978271 
	C3468.194580,2380.083984 3463.949219,2367.364502 3465.308105,2353.049316 
	C3477.171387,2352.066650 3488.381348,2351.174316 3499.583984,2350.199707 
	C3510.202148,2349.276367 3520.835449,2348.463379 3531.420166,2347.241699 
	C3542.397461,2345.975098 3553.842285,2347.281006 3565.802734,2342.232666 
	C3562.637695,2328.169922 3564.054932,2314.162354 3558.208740,2300.697021 
	C3524.204346,2304.807373 3491.538330,2310.286133 3457.566162,2311.724854 
	C3454.130371,2294.427979 3449.487793,2278.707764 3451.306152,2260.872803 
	C3467.799805,2259.037842 3483.636230,2257.545166 3499.391602,2255.447510 
	C3514.949219,2253.375732 3530.969482,2253.691895 3547.304688,2247.729980 
	C3542.912842,2233.683105 3541.566895,2219.847168 3535.133545,2206.394775 
	C3505.339844,2209.957031 3476.159424,2216.693359 3446.295410,2217.670898 
	C3437.849121,2200.803955 3442.488037,2182.256836 3434.982422,2165.885498 
	C3419.736572,2164.830566 3404.746582,2164.574219 3388.995361,2167.645020 
	C3389.072998,2186.351807 3396.962891,2203.384766 3395.799805,2222.020508 
	C3379.997559,2226.533203 3363.888184,2225.099121 3348.204590,2227.136963 
	C3331.900635,2229.255615 3315.181152,2227.296875 3298.315186,2231.201416 
	C3299.374023,2245.068848 3300.370605,2258.116211 3301.407715,2271.697998 
	C3318.903076,2275.702148 3335.378662,2271.547363 3351.789551,2271.180420 
	C3368.290771,2270.811279 3384.759277,2268.965576 3402.844971,2267.650146 
	C3405.307617,2284.305908 3409.696045,2299.468262 3408.350342,2316.392334 
	C3395.806885,2321.410400 3382.970459,2320.334717 3370.636475,2321.895508 
	C3357.425781,2323.566895 3344.027832,2323.909668 3330.890625,2325.972900 
	C3318.588867,2327.905029 3305.755615,2326.585205 3292.929199,2331.319824 
	C3295.281494,2346.108643 3297.205322,2360.324219 3303.101318,2374.254883 
	C3340.627686,2368.813721 3377.455078,2364.885254 3413.765625,2362.065674 
	C3419.306885,2368.661133 3418.973389,2375.573486 3419.847656,2382.048828 
	C3421.629395,2395.249023 3422.897705,2408.520020 3424.809814,2421.699219 
	C3425.438477,2426.033691 3427.398682,2430.175049 3428.956299,2435.050537 
	C3441.221924,2435.050537 3452.501465,2435.050537 3467.120117,2434.876709 
M2867.604492,2243.595459 
	C2871.299561,2244.093018 2875.543945,2242.333496 2878.376221,2246.067139 
	C2878.554443,2246.837158 2879.009277,2247.615723 2878.786865,2248.032959 
	C2877.239014,2250.937012 2875.890137,2254.039062 2873.852539,2256.575439 
	C2857.137207,2277.384033 2838.907227,2296.741455 2818.036865,2313.467041 
	C2815.608154,2315.413330 2812.455322,2316.456055 2809.530029,2317.973877 
	C2790.933105,2304.989746 2772.998291,2292.468262 2754.238281,2279.370361 
	C2749.349365,2284.225586 2744.418457,2288.570557 2740.162842,2293.499023 
	C2735.563721,2298.824951 2727.863281,2301.515625 2725.825195,2309.278564 
	C2741.104004,2321.915771 2756.205322,2333.884277 2770.703613,2346.543945 
	C2785.223633,2359.222412 2799.746094,2372.004150 2813.151855,2385.822998 
	C2826.365967,2399.444336 2838.182129,2414.421875 2851.226562,2429.516113 
	C2863.785156,2418.103271 2877.243408,2409.847656 2887.695557,2397.623047 
	C2875.129395,2379.425293 2859.092041,2365.322754 2846.965820,2348.262451 
	C2867.410400,2328.333252 2887.380371,2309.834717 2906.209961,2290.239990 
	C2925.095215,2270.587402 2941.110840,2248.482910 2957.461670,2226.353760 
	C2953.661621,2219.175049 2947.481445,2215.069580 2942.031494,2210.317871 
	C2936.554199,2205.542480 2930.943115,2200.920166 2925.554688,2196.369385 
	C2918.433350,2196.771484 2911.818848,2197.426270 2905.200195,2197.471436 
	C2871.925293,2197.697998 2838.648926,2197.747559 2805.373291,2197.893555 
	C2768.769531,2198.054199 2732.165283,2198.180908 2695.563232,2198.527588 
	C2691.165771,2198.569092 2686.780273,2199.890869 2681.946289,2200.692627 
	C2681.584717,2215.467285 2678.777100,2229.201416 2684.010498,2243.604248 
	C2744.353760,2243.604248 2804.205566,2243.604248 2867.604492,2243.595459 
M3066.009277,2283.933105 
	C3044.936279,2284.488770 3023.768311,2282.751465 3003.080322,2285.332031 
	C2999.522949,2302.561768 2999.929443,2314.661133 3004.559082,2330.006104 
	C3008.622314,2330.460693 3013.110840,2331.301514 3017.618408,2331.417236 
	C3095.772949,2333.427002 3221.903076,2332.471924 3239.660889,2329.663574 
	C3242.144531,2314.974121 3241.257568,2300.257324 3238.374756,2284.399170 
	C3181.519287,2283.255371 3125.752441,2284.630371 3066.009277,2283.933105 
M3616.034424,2298.778076 
	C3616.813232,2309.117188 3614.406494,2319.801514 3618.535400,2330.328369 
	C3622.522705,2330.769043 3625.744629,2331.430664 3628.967285,2331.436279 
	C3700.724121,2331.561035 3772.481201,2331.637451 3844.238037,2331.593994 
	C3847.287598,2331.592285 3850.336426,2330.347900 3854.630127,2329.410889 
	C3853.672852,2314.147217 3856.959473,2299.741455 3852.148193,2285.018311 
	C3847.846680,2284.631348 3843.953613,2283.973145 3840.060791,2283.977295 
	C3771.625977,2284.048584 3703.191162,2284.198730 3634.756348,2284.341797 
	C3631.435059,2284.348877 3628.113770,2284.435547 3624.792725,2284.507324 
	C3617.802734,2284.658691 3615.889404,2289.020020 3616.034424,2298.778076 
z"/>
<path fill="#FDF5E5" opacity="1.000000" stroke="none" 
	d="
M1344.069458,2124.217285 
	C1342.770630,2102.838135 1342.556763,2082.867676 1342.383789,2062.896729 
	C1342.326660,2056.300293 1342.374878,2049.702881 1342.374878,2041.746704 
	C1336.257446,2041.049316 1331.223755,2040.004517 1326.183960,2039.974976 
	C1283.534790,2039.724487 1240.884155,2039.680908 1198.234375,2039.515869 
	C1191.702759,2039.490723 1185.172119,2039.163086 1179.421753,2038.997681 
	C1178.128784,2037.537354 1177.594849,2037.089966 1177.269775,2036.522949 
	C1176.953613,2035.971558 1176.680176,2035.297485 1176.679810,2034.677002 
	C1176.597046,1891.414185 1176.535034,1748.151489 1176.521362,1604.888672 
	C1176.521118,1602.272339 1177.110352,1599.656006 1177.468628,1596.673584 
	C1190.836548,1593.419678 1204.187500,1595.286377 1217.388184,1594.904297 
	C1231.371338,1594.499390 1245.375122,1594.772217 1259.369751,1594.810303 
	C1272.697876,1594.846436 1286.025757,1594.992798 1299.353882,1595.033325 
	C1312.554810,1595.073486 1325.755981,1595.042114 1340.078247,1595.042114 
	C1343.901489,1580.425415 1341.562744,1566.471313 1342.152588,1552.763306 
	C1342.747681,1538.931519 1341.391357,1525.001587 1342.973389,1512.505249 
	C1344.820190,1510.871338 1345.244141,1510.351440 1345.789429,1510.053589 
	C1346.361938,1509.740967 1347.050415,1509.473145 1347.688599,1509.472168 
	C1446.969849,1509.327148 1546.251099,1509.202271 1645.532349,1509.131958 
	C1647.448730,1509.130615 1649.365601,1509.786133 1651.982178,1510.262817 
	C1655.398071,1523.929321 1653.563110,1537.912964 1654.044800,1551.720459 
	C1654.505493,1564.926270 1654.489136,1578.148560 1654.700562,1592.603394 
	C1660.820923,1593.302002 1665.872559,1594.360840 1670.927979,1594.379272 
	C1710.245728,1594.523071 1749.564453,1594.426636 1788.882446,1594.505127 
	C1796.797485,1594.520996 1804.711670,1594.965332 1813.327881,1595.234009 
	C1816.459106,1602.879639 1815.222168,1610.224976 1815.224365,1617.273926 
	C1815.248413,1693.245239 1815.036499,1769.216431 1815.038086,1845.187744 
	C1815.039307,1903.165649 1815.255005,1961.143433 1815.372314,2019.121338 
	C1815.383057,2024.411743 1815.373901,2029.702148 1815.373901,2034.367554 
	C1808.753174,2039.996460 1801.817139,2038.072388 1795.393066,2038.051270 
	C1756.076416,2037.921387 1716.760498,2037.518799 1677.444336,2037.226074 
	C1670.801025,2037.176514 1664.156982,2037.219116 1656.576782,2037.219116 
	C1655.576172,2041.351318 1653.984619,2044.993164 1653.925415,2048.659668 
	C1653.624390,2067.314697 1653.773438,2085.976074 1653.647705,2104.634766 
	C1653.603516,2111.190674 1653.225830,2117.744141 1652.957764,2125.538086 
	C1649.092285,2126.040527 1645.999756,2126.791992 1642.906738,2126.793945 
	C1546.942993,2126.854492 1450.979248,2126.854004 1355.015503,2126.789551 
	C1351.733521,2126.787354 1348.452148,2126.030762 1344.069458,2124.217285 
M1409.902832,1727.748535 
	C1403.656738,1734.643433 1396.999023,1741.212036 1391.233887,1748.488037 
	C1361.015991,1786.625854 1358.307251,1851.114990 1390.891357,1891.632446 
	C1441.718750,1954.834839 1535.438477,1960.949585 1593.641602,1902.478027 
	C1614.210815,1881.813965 1627.542603,1856.401978 1628.940796,1826.279175 
	C1631.258667,1776.343140 1601.711548,1728.787720 1555.010620,1708.730225 
	C1504.295532,1686.948608 1456.390991,1692.415771 1409.902832,1727.748535 
z"/>
<path fill="#FCF4E5" opacity="1.000000" stroke="none" 
	d="
M2935.999756,1548.258667 
	C2965.800537,1548.699829 2993.646729,1547.149414 3019.933105,1548.956543 
	C3021.803955,1550.683350 3022.427734,1551.058228 3022.745605,1551.609619 
	C3023.059082,1552.152954 3023.184082,1552.875000 3023.184814,1553.518799 
	C3023.351318,1722.703369 3023.502441,1891.887939 3023.627441,2061.072510 
	C3023.629883,2064.370850 3023.322754,2067.668945 3023.112061,2071.944580 
	C3019.206787,2072.724854 3015.500732,2074.099854 3011.790283,2074.111816 
	C2957.169434,2074.286621 2902.547607,2074.315430 2847.926270,2074.252197 
	C2843.421875,2074.247070 2838.918457,2073.324951 2833.140381,2072.688477 
	C2831.819824,2036.806396 2833.078369,2001.667480 2832.244629,1966.372681 
	C2830.133057,1965.474487 2828.392578,1964.091187 2826.648682,1964.086670 
	C2781.370117,1963.968140 2736.091309,1963.992798 2689.691406,1963.992798 
	C2689.014404,1967.584106 2687.747070,1971.281006 2687.709473,1974.990356 
	C2687.453369,2000.300903 2687.451416,2025.614136 2687.377197,2050.926514 
	C2687.357910,2057.542236 2687.374512,2064.158203 2687.374512,2069.958740 
	C2685.828613,2071.164551 2685.341064,2071.584717 2684.813232,2071.945312 
	C2684.263916,2072.320312 2683.679932,2072.929443 2683.103271,2072.937988 
	C2638.493164,2073.620850 2593.883301,2074.312744 2549.271240,2074.859619 
	C2533.327393,2075.055176 2517.379395,2074.890869 2502.422852,2074.890869 
	C2496.783447,2068.738281 2498.066162,2062.430908 2497.940430,2056.654053 
	C2497.303467,2027.353149 2496.645020,1998.045776 2496.615479,1968.740112 
	C2496.508789,1862.161377 2496.634277,1755.582520 2496.732422,1649.003662 
	C2496.739014,1641.822998 2497.245605,1634.642822 2497.535645,1627.043579 
	C2508.376221,1623.306396 2518.407715,1624.959595 2528.178711,1624.582153 
	C2538.822021,1624.171265 2549.490967,1624.414062 2560.148926,1624.395386 
	C2570.055420,1624.378052 2579.961914,1624.391724 2590.980469,1624.391724 
	C2591.595703,1619.677124 2592.468750,1615.941284 2592.504395,1612.197510 
	C2592.655029,1596.212036 2592.477295,1580.223755 2592.603027,1564.237793 
	C2592.638428,1559.757324 2593.300781,1555.281982 2593.565186,1552.122070 
	C2595.409668,1550.473022 2595.842773,1549.925659 2596.406982,1549.626343 
	C2596.979248,1549.323242 2597.672852,1549.188232 2598.328369,1549.114624 
	C2600.304688,1548.893188 2602.288086,1548.587402 2604.269775,1548.578735 
	C2640.239746,1548.422974 2676.209961,1548.216675 2712.179932,1548.199219 
	C2786.119873,1548.163452 2860.060059,1548.233154 2935.999756,1548.258667 
M2750.020996,1697.115967 
	C2733.389893,1697.135254 2716.757324,1697.041504 2700.128906,1697.260620 
	C2696.384766,1697.309814 2692.655029,1698.450317 2688.690674,1699.127563 
	C2688.690674,1739.954468 2688.690674,1779.788086 2688.690674,1820.283081 
	C2692.295410,1820.881226 2695.474609,1821.873047 2698.651367,1821.865601 
	C2740.559814,1821.767944 2782.468262,1821.563599 2824.375488,1821.237427 
	C2826.753418,1821.218994 2829.121338,1819.914062 2831.302002,1819.265137 
	C2831.715820,1816.343262 2832.215332,1814.419189 2832.227539,1812.492065 
	C2832.450195,1777.235474 2832.661865,1741.978516 2832.708496,1706.721313 
	C2832.712402,1703.699219 2831.537598,1700.675537 2831.103027,1698.580566 
	C2829.017090,1697.670776 2828.429932,1697.191772 2827.842041,1697.190430 
	C2803.231689,1697.137573 2778.621338,1697.127441 2750.020996,1697.115967 
z"/>
<path fill="#FCF4E5" opacity="1.000000" stroke="none" 
	d="
M2440.558594,1864.000244 
	C2440.493896,1934.554810 2440.444824,2003.109375 2440.395752,2071.404541 
	C2421.052734,2074.863525 2278.604736,2075.270264 2260.945068,2071.974121 
	C2258.688965,2050.469482 2259.578125,2028.604492 2259.310547,2006.802490 
	C2259.041016,1984.815552 2259.278076,1962.822266 2259.332031,1940.831665 
	C2259.384521,1919.507446 2259.478516,1898.183350 2259.568848,1876.859131 
	C2259.660400,1855.200073 2259.939941,1833.535645 2259.691406,1812.454590 
	C2256.898193,1811.827271 2256.297607,1811.546143 2255.731689,1811.603882 
	C2255.091553,1811.669434 2254.374756,1811.904785 2253.879395,1812.301147 
	C2252.327881,1813.542358 2250.811035,1814.838013 2249.375977,1816.211914 
	C2220.030518,1844.305664 2190.700439,1872.415527 2161.343262,1900.497070 
	C2160.895264,1900.925537 2160.144043,1901.036865 2158.019531,1901.940430 
	C2141.420410,1888.020996 2125.420654,1872.325195 2109.010986,1857.103760 
	C2092.435059,1841.727661 2075.941162,1826.262573 2057.991455,1809.511475 
	C2056.671387,1813.759888 2055.060059,1816.554199 2055.046631,1819.356079 
	C2054.894531,1851.341797 2055.010254,1883.328613 2055.007812,1915.315186 
	C2055.003906,1961.962402 2054.961426,2008.609619 2054.936035,2055.256836 
	C2054.933105,2060.501953 2054.935547,2065.746826 2054.935547,2071.517090 
	C2050.514893,2072.372559 2047.365967,2073.383057 2044.175415,2073.538330 
	C2003.285400,2075.530762 1890.537354,2074.976074 1874.066650,2072.738037 
	C1870.061768,2067.733398 1871.919556,2061.502197 1871.916870,2055.802979 
	C1871.869873,1955.178345 1872.025513,1854.553833 1872.066284,1753.929199 
	C1872.091064,1692.622070 1871.967896,1631.314819 1871.993774,1570.007690 
	C1871.996460,1563.539307 1872.556396,1557.071289 1872.817871,1551.457764 
	C1875.464478,1550.125488 1876.611816,1549.045532 1877.764404,1549.039917 
	C1935.726562,1548.753296 1993.689087,1548.544678 2051.651855,1548.415283 
	C2053.511963,1548.411133 2055.374512,1549.320679 2058.298096,1550.080200 
	C2061.371826,1567.008911 2057.979004,1584.365356 2060.734863,1603.384277 
	C2091.455078,1632.345337 2123.281982,1662.457031 2156.602783,1692.227783 
	C2160.981201,1688.512817 2164.539307,1685.750122 2167.808350,1682.679565 
	C2191.604736,1660.328247 2214.932129,1637.454712 2239.281006,1615.724609 
	C2250.718018,1605.517822 2255.966553,1594.240479 2254.799805,1579.081055 
	C2254.093262,1569.898804 2255.044922,1560.588745 2255.276123,1550.231201 
	C2259.298096,1549.613037 2262.367920,1548.737671 2265.440430,1548.729004 
	C2321.415039,1548.570312 2377.390137,1548.510254 2433.364990,1548.473511 
	C2434.636719,1548.472656 2435.908936,1548.985474 2437.579590,1549.344360 
	C2442.584961,1554.807983 2440.279541,1561.790771 2440.293945,1568.121460 
	C2440.504395,1659.416382 2440.510254,1750.711792 2440.565186,1842.007080 
	C2440.569092,1848.671509 2440.570801,1855.335815 2440.558594,1864.000244 
z"/>
<path fill="#FDF5E5" opacity="1.000000" stroke="none" 
	d="
M3079.559570,1975.999756 
	C3079.779297,1834.015991 3079.996094,1694.032227 3080.294189,1554.048584 
	C3080.296631,1552.913818 3081.400635,1551.781494 3082.253662,1550.142456 
	C3083.716553,1549.692261 3085.557129,1548.630493 3087.398193,1548.629639 
	C3242.680664,1548.553223 3397.963135,1548.559204 3554.330811,1548.559204 
	C3555.104492,1551.795898 3556.459229,1554.819214 3556.458984,1557.842651 
	C3556.457031,1669.839722 3556.332275,1781.836792 3556.188965,1893.833862 
	C3556.187256,1895.115723 3555.719727,1896.397095 3555.219971,1898.961304 
	C3551.996826,1899.575195 3548.319092,1900.855591 3544.631348,1900.884766 
	C3518.633057,1901.091187 3492.632812,1901.040771 3466.633057,1901.070923 
	C3462.807373,1901.075317 3458.981689,1901.071533 3454.709229,1901.071533 
	C3458.654053,1913.857788 3469.026611,1928.527954 3493.753174,1956.998657 
	C3513.485352,1960.842896 3534.247070,1957.162598 3554.328613,1960.010742 
	C3557.444092,1978.084106 3557.548584,2055.389893 3554.489014,2072.618896 
	C3550.125244,2072.990723 3545.559570,2073.695557 3540.989990,2073.720459 
	C3497.657959,2073.955322 3454.318359,2073.692383 3410.997070,2074.475586 
	C3399.029541,2074.691895 3391.584717,2070.252686 3384.208008,2061.252441 
	C3347.449463,2016.405029 3309.899658,1972.207397 3273.006836,1927.468628 
	C3267.452881,1920.733154 3261.873779,1918.637329 3252.577881,1922.024780 
	C3252.503662,1938.068237 3252.386719,1954.627563 3252.362061,1971.187012 
	C3252.337158,1987.853516 3252.414062,2004.520142 3252.427490,2021.186646 
	C3252.440674,2037.805664 3252.430176,2054.424805 3252.430176,2071.581787 
	C3249.169678,2072.521729 3246.765137,2073.805176 3244.350342,2073.823975 
	C3193.020264,2074.221191 3141.688721,2074.492432 3090.357422,2074.713135 
	C3087.792969,2074.723877 3085.225098,2074.059326 3083.847412,2073.871338 
	C3082.221436,2072.634766 3081.561035,2072.323242 3081.198730,2071.803467 
	C3080.835449,2071.282959 3080.604492,2070.556885 3080.596924,2069.917725 
	C3080.232178,2039.278564 3079.897949,2008.639282 3079.559570,1975.999756 
M3364.823242,1708.685425 
	C3359.612061,1705.789062 3354.677979,1702.124023 3349.142334,1700.128052 
	C3323.506104,1690.884644 3299.359131,1693.857544 3277.743896,1710.931763 
	C3256.838623,1727.445312 3250.295898,1754.567627 3260.388672,1779.204468 
	C3279.844482,1826.695923 3339.038086,1828.152954 3366.076904,1805.142578 
	C3386.147705,1788.062012 3398.525879,1754.757202 3378.735352,1724.099731 
	C3375.536133,1719.143677 3371.057373,1715.013428 3364.823242,1708.685425 
z"/>
<path fill="#FBF3E4" opacity="1.000000" stroke="none" 
	d="
M4236.119141,1886.744141 
	C4231.466797,1886.843628 4228.811035,1886.965454 4224.805664,1887.149170 
	C4224.244141,1891.430664 4223.185547,1895.805664 4223.169922,1900.184204 
	C4222.990234,1950.815308 4222.990723,2001.446899 4222.878906,2052.078369 
	C4222.864258,2058.593506 4222.487305,2065.107422 4222.283203,2071.463135 
	C4219.366211,2072.541748 4217.547363,2073.799805 4215.726562,2073.802490 
	C4163.768066,2073.878906 4111.809570,2073.848389 4059.851074,2073.719971 
	C4057.998779,2073.715332 4056.149414,2072.534668 4054.423096,2071.944824 
	C4051.878906,2055.688232 4051.112793,1571.469604 4053.696777,1549.655151 
	C4071.765625,1546.577148 4090.294922,1548.671997 4108.685059,1548.288086 
	C4127.330566,1547.899048 4145.991211,1548.070679 4164.643555,1548.237671 
	C4183.146973,1548.403198 4201.693359,1547.429688 4221.288086,1548.993530 
	C4223.166504,1562.282471 4222.516113,1574.880249 4222.757812,1587.392578 
	C4223.015137,1600.712158 4222.912598,1614.039307 4222.916504,1627.363159 
	C4222.919922,1640.020996 4222.828125,1652.678711 4222.832520,1665.336548 
	C4222.836914,1678.660522 4222.791504,1691.986206 4222.978516,1705.308105 
	C4223.153809,1717.792236 4222.664062,1730.331787 4223.837891,1742.448120 
	C4240.170898,1744.902100 4322.312988,1744.852539 4343.708496,1742.431519 
	C4344.081543,1736.992676 4344.787598,1731.243652 4344.822266,1725.490601 
	C4345.137695,1673.528076 4345.296387,1621.564575 4345.619141,1569.602173 
	C4345.659668,1563.062012 4344.533203,1556.264893 4347.948242,1550.259521 
	C4365.713379,1547.487061 4496.253906,1547.421143 4513.191406,1550.119873 
	C4513.642578,1550.610352 4514.208984,1551.039429 4514.511230,1551.608887 
	C4514.807617,1552.167114 4514.962402,1552.867920 4514.963379,1553.506104 
	C4515.142090,1723.379150 4515.305664,1893.252197 4515.431152,2063.125244 
	C4515.433105,2065.749756 4514.950684,2068.375000 4514.622070,2071.738037 
	C4511.371094,2072.439697 4508.245117,2073.683838 4505.110352,2073.705566 
	C4455.812988,2074.047852 4406.514648,2074.252686 4357.216309,2074.408203 
	C4354.024902,2074.418213 4350.832031,2073.769775 4346.427734,2073.297852 
	C4345.943359,2066.780029 4345.123535,2060.993896 4345.145020,2055.210938 
	C4345.322266,2007.245728 4345.660645,1959.281128 4345.935059,1911.316284 
	C4345.976562,1904.039673 4345.941406,1896.762573 4345.941406,1888.400879 
	C4340.920410,1887.786133 4336.487305,1886.789429 4332.050781,1886.773193 
	C4300.739258,1886.657959 4269.427734,1886.744507 4236.119141,1886.744141 
z"/>
<path fill="#FCF4E5" opacity="1.000000" stroke="none" 
	d="
M4852.703125,1576.559814 
	C4852.895996,1566.757568 4853.077148,1558.881104 4853.218750,1552.721191 
	C4855.104004,1550.579102 4855.469238,1549.964478 4856.005859,1549.611328 
	C4856.531250,1549.265259 4857.227539,1549.030640 4857.856445,1549.012573 
	C4867.832520,1548.724731 4877.809082,1548.278809 4887.786621,1548.259644 
	C4930.403809,1548.177856 4973.020996,1548.224854 5014.678223,1548.224854 
	C5020.215332,1553.398438 5018.657227,1559.029053 5018.666992,1564.138550 
	C5018.822754,1647.438965 5018.889160,1730.739502 5018.899902,1814.040039 
	C5018.904297,1844.694824 5018.708008,1875.349487 5018.612793,1906.004272 
	C5018.591797,1912.633057 5018.609375,1919.261841 5018.609375,1927.074951 
	C5013.576660,1927.773926 5009.225586,1928.876099 5004.867676,1928.904419 
	C4970.214844,1929.129517 4935.561035,1929.153442 4900.907227,1929.232666 
	C4894.309570,1929.247803 4887.711914,1929.234863 4881.874023,1929.234863 
	C4876.466797,1936.233887 4878.233398,1943.144653 4878.208496,1949.603394 
	C4877.973145,2010.246704 4877.975098,2070.891113 4877.777832,2131.534424 
	C4877.756836,2138.084961 4879.260742,2144.861572 4876.052734,2151.114258 
	C4860.356934,2153.299316 4727.288086,2153.382812 4705.088379,2151.083496 
	C4704.544434,2146.399170 4703.475098,2141.379395 4703.453613,2136.354980 
	C4703.239746,2086.375488 4703.191895,2036.395142 4703.115234,1986.415161 
	C4703.087891,1968.455078 4703.111328,1950.494995 4703.111328,1931.428345 
	C4697.697754,1930.568481 4693.308105,1929.278809 4688.916016,1929.268188 
	C4656.262207,1929.188477 4623.608398,1929.365601 4590.954590,1929.454468 
	C4584.391113,1929.472290 4577.827637,1929.457153 4573.278809,1929.457153 
	C4570.758789,1927.617188 4570.098633,1927.329834 4569.750000,1926.827148 
	C4569.389160,1926.306396 4569.165527,1925.577271 4569.162598,1924.937866 
	C4568.774902,1843.655762 4568.280762,1762.373657 4568.102539,1681.091064 
	C4568.007812,1637.850098 4568.461914,1594.607910 4568.671387,1550.745117 
	C4571.838867,1549.805664 4574.248535,1548.473633 4576.662109,1548.466187 
	C4625.976074,1548.312012 4675.291016,1548.293457 4724.605469,1548.338135 
	C4726.443848,1548.339844 4728.281250,1549.250854 4731.493164,1550.102661 
	C4732.761719,1577.272705 4731.938477,1604.431396 4732.087402,1631.560547 
	C4732.237793,1658.883057 4732.186523,1686.206787 4732.201172,1713.529907 
	C4732.216309,1740.734741 4732.204102,1767.939575 4732.204102,1793.389160 
	C4734.019531,1795.625610 4734.342773,1796.268066 4734.863770,1796.596924 
	C4735.399902,1796.936279 4736.128906,1797.114990 4736.774414,1797.116943 
	C4772.741211,1797.226074 4808.707520,1797.328735 4844.674316,1797.338989 
	C4846.540039,1797.339600 4848.405273,1796.526367 4851.308105,1795.850220 
	C4853.466309,1772.073364 4851.919922,1748.222290 4852.159668,1724.430054 
	C4852.408203,1699.775146 4852.141602,1675.115479 4852.221191,1650.458252 
	C4852.298340,1626.467163 4852.527832,1602.476440 4852.703125,1576.559814 
z"/>
<path fill="#FCF4E5" opacity="1.000000" stroke="none" 
	d="
M3784.751221,1824.000488 
	C3784.750977,1857.904175 3784.750977,1889.807861 3784.750977,1920.820312 
	C3789.927979,1926.583618 3795.592041,1924.569336 3800.627197,1924.575439 
	C3858.607666,1924.645630 3916.588379,1924.539795 3974.568848,1924.482788 
	C3981.187988,1924.476318 3987.807129,1924.481934 3994.149170,1924.481934 
	C3997.855957,1940.019287 3998.871826,2025.835693 3996.055664,2072.020264 
	C3992.650146,2072.532959 3988.959961,2073.566650 3985.267578,2073.574951 
	C3867.307617,2073.836670 3749.347412,2074.024170 3631.387207,2074.104980 
	C3625.556396,2074.108887 3619.312744,2075.608398 3612.849609,2070.451660 
	C3612.254883,1900.199341 3611.965820,1729.012939 3612.539795,1557.824341 
	C3612.548340,1555.314819 3613.296143,1552.807617 3613.868408,1549.241943 
	C3619.008545,1548.911987 3623.497559,1548.430176 3627.992920,1548.363159 
	C3766.122314,1546.300293 3976.655273,1547.259399 3995.334961,1549.997192 
	C3997.228760,1563.991943 3997.619141,1667.734985 3995.820068,1689.977173 
	C3989.419434,1694.482178 3981.833740,1692.337280 3974.813477,1692.389282 
	C3918.834229,1692.804443 3862.852539,1692.859009 3806.871582,1693.073975 
	C3800.300293,1693.099243 3793.729980,1693.426270 3786.706543,1693.626343 
	C3782.985107,1708.325195 3785.136963,1722.266357 3784.790527,1736.030029 
	C3784.421631,1750.682617 3784.708252,1765.351562 3784.715820,1780.013428 
	C3784.723145,1794.009033 3784.739258,1808.004761 3784.751221,1824.000488 
z"/>
<path fill="#E3342F" opacity="1.000000" stroke="none" 
	d="
M2552.295410,2355.967773 
	C2552.042236,2371.951416 2551.892822,2385.945312 2551.512695,2399.933105 
	C2551.253174,2409.471436 2548.410645,2418.254150 2543.034912,2426.201904 
	C2539.841797,2430.922852 2535.527588,2433.712158 2529.823730,2434.059082 
	C2527.177246,2434.220459 2524.504395,2434.038330 2521.847168,2433.922363 
	C2502.646240,2433.083984 2483.446045,2432.222656 2463.136719,2431.319336 
	C2460.945801,2417.534180 2458.890137,2404.600586 2456.712891,2390.901855 
	C2471.340088,2385.693848 2486.408936,2391.854004 2501.076416,2386.612793 
	C2501.921143,2384.797852 2503.939941,2382.467041 2503.955811,2380.122803 
	C2504.166260,2348.855469 2504.096680,2317.586182 2504.096680,2286.309082 
	C2500.026611,2284.205811 2498.056641,2287.325928 2496.132568,2289.823242 
	C2490.846924,2296.684570 2485.759277,2303.697998 2480.593994,2310.651855 
	C2453.247803,2347.469482 2418.960938,2376.617676 2380.055908,2402.590332 
	C2373.783936,2397.135498 2367.718506,2392.178223 2362.028564,2386.822266 
	C2356.334473,2381.462402 2349.178467,2377.464844 2344.572266,2368.966064 
	C2388.750244,2342.557129 2427.639404,2310.631836 2457.345215,2268.624512 
	C2458.710205,2266.694336 2458.994629,2264.000488 2460.204102,2260.409424 
	C2447.892822,2257.744385 2436.682129,2259.347656 2425.630127,2259.014404 
	C2414.975830,2258.693359 2404.303467,2259.023193 2393.643555,2258.826416 
	C2382.482178,2258.620117 2371.196289,2259.776123 2359.170410,2257.278809 
	C2356.306885,2243.413574 2356.614014,2230.431396 2358.293701,2216.754639 
	C2373.754883,2212.674561 2389.010254,2215.581543 2404.136230,2215.517090 
	C2420.130615,2215.449219 2436.125488,2215.543701 2452.120117,2215.553711 
	C2467.359131,2215.563477 2482.598389,2215.555908 2499.010010,2215.555908 
	C2499.912109,2210.134521 2501.000244,2205.819336 2501.284668,2201.451660 
	C2502.011719,2190.291992 2500.096924,2178.979004 2502.680664,2166.708740 
	C2517.409180,2163.499756 2531.796875,2164.526855 2547.176270,2165.516602 
	C2548.301514,2169.382568 2550.007568,2172.968018 2550.287598,2176.661377 
	C2550.942139,2185.290039 2550.801514,2193.975830 2551.210205,2202.627686 
	C2551.390625,2206.445801 2552.123291,2210.237549 2552.758301,2215.249268 
	C2578.735107,2217.336670 2603.957275,2214.696533 2629.687988,2216.429199 
	C2634.650879,2229.736572 2631.947754,2242.829102 2631.645996,2256.808594 
	C2627.662109,2257.728760 2623.984863,2259.280762 2620.296387,2259.307129 
	C2604.972900,2259.416992 2589.645996,2258.982178 2574.319824,2258.925781 
	C2567.778564,2258.901611 2561.235596,2259.315674 2554.075928,2259.551025 
	C2550.186523,2276.313232 2552.754639,2292.239014 2552.362549,2307.991943 
	C2551.981445,2323.310791 2552.293457,2338.646973 2552.295410,2355.967773 
z"/>
<path fill="#E3342F" opacity="1.000000" stroke="none" 
	d="
M3465.450684,2434.963623 
	C3452.501465,2435.050537 3441.221924,2435.050537 3428.956299,2435.050537 
	C3427.398682,2430.175049 3425.438477,2426.033691 3424.809814,2421.699219 
	C3422.897705,2408.520020 3421.629395,2395.249023 3419.847656,2382.048828 
	C3418.973389,2375.573486 3419.306885,2368.661133 3413.765625,2362.065674 
	C3377.455078,2364.885254 3340.627686,2368.813721 3303.101318,2374.254883 
	C3297.205322,2360.324219 3295.281494,2346.108643 3292.929199,2331.319824 
	C3305.755615,2326.585205 3318.588867,2327.905029 3330.890625,2325.972900 
	C3344.027832,2323.909668 3357.425781,2323.566895 3370.636475,2321.895508 
	C3382.970459,2320.334717 3395.806885,2321.410400 3408.350342,2316.392334 
	C3409.696045,2299.468262 3405.307617,2284.305908 3402.844971,2267.650146 
	C3384.759277,2268.965576 3368.290771,2270.811279 3351.789551,2271.180420 
	C3335.378662,2271.547363 3318.903076,2275.702148 3301.407715,2271.697998 
	C3300.370605,2258.116211 3299.374023,2245.068848 3298.315186,2231.201416 
	C3315.181152,2227.296875 3331.900635,2229.255615 3348.204590,2227.136963 
	C3363.888184,2225.099121 3379.997559,2226.533203 3395.799805,2222.020508 
	C3396.962891,2203.384766 3389.072998,2186.351807 3388.995361,2167.645020 
	C3404.746582,2164.574219 3419.736572,2164.830566 3434.982422,2165.885498 
	C3442.488037,2182.256836 3437.849121,2200.803955 3446.295410,2217.670898 
	C3476.159424,2216.693359 3505.339844,2209.957031 3535.133545,2206.394775 
	C3541.566895,2219.847168 3542.912842,2233.683105 3547.304688,2247.729980 
	C3530.969482,2253.691895 3514.949219,2253.375732 3499.391602,2255.447510 
	C3483.636230,2257.545166 3467.799805,2259.037842 3451.306152,2260.872803 
	C3449.487793,2278.707764 3454.130371,2294.427979 3457.566162,2311.724854 
	C3491.538330,2310.286133 3524.204346,2304.807373 3558.208740,2300.697021 
	C3564.054932,2314.162354 3562.637695,2328.169922 3565.802734,2342.232666 
	C3553.842285,2347.281006 3542.397461,2345.975098 3531.420166,2347.241699 
	C3520.835449,2348.463379 3510.202148,2349.276367 3499.583984,2350.199707 
	C3488.381348,2351.174316 3477.171387,2352.066650 3465.308105,2353.049316 
	C3463.949219,2367.364502 3468.194580,2380.083984 3470.218018,2392.978271 
	C3472.168701,2405.407715 3475.139893,2417.677002 3477.932861,2431.337646 
	C3474.136475,2432.580078 3470.628418,2433.728516 3465.450684,2434.963623 
z"/>
<path fill="#E3342F" opacity="1.000000" stroke="none" 
	d="
M2865.830811,2243.599854 
	C2804.205566,2243.604248 2744.353760,2243.604248 2684.010498,2243.604248 
	C2678.777100,2229.201416 2681.584717,2215.467285 2681.946289,2200.692627 
	C2686.780273,2199.890869 2691.165771,2198.569092 2695.563232,2198.527588 
	C2732.165283,2198.180908 2768.769531,2198.054199 2805.373291,2197.893555 
	C2838.648926,2197.747559 2871.925293,2197.697998 2905.200195,2197.471436 
	C2911.818848,2197.426270 2918.433350,2196.771484 2925.554688,2196.369385 
	C2930.943115,2200.920166 2936.554199,2205.542480 2942.031494,2210.317871 
	C2947.481445,2215.069580 2953.661621,2219.175049 2957.461670,2226.353760 
	C2941.110840,2248.482910 2925.095215,2270.587402 2906.209961,2290.239990 
	C2887.380371,2309.834717 2867.410400,2328.333252 2846.965820,2348.262451 
	C2859.092041,2365.322754 2875.129395,2379.425293 2887.695557,2397.623047 
	C2877.243408,2409.847656 2863.785156,2418.103271 2851.226562,2429.516113 
	C2838.182129,2414.421875 2826.365967,2399.444336 2813.151855,2385.822998 
	C2799.746094,2372.004150 2785.223633,2359.222412 2770.703613,2346.543945 
	C2756.205322,2333.884277 2741.104004,2321.915771 2725.825195,2309.278564 
	C2727.863281,2301.515625 2735.563721,2298.824951 2740.162842,2293.499023 
	C2744.418457,2288.570557 2749.349365,2284.225586 2754.238281,2279.370361 
	C2772.998291,2292.468262 2790.933105,2304.989746 2809.530029,2317.973877 
	C2812.455322,2316.456055 2815.608154,2315.413330 2818.036865,2313.467041 
	C2838.907227,2296.741455 2857.137207,2277.384033 2873.852539,2256.575439 
	C2875.890137,2254.039062 2877.239014,2250.937012 2878.786865,2248.032959 
	C2879.009277,2247.615723 2878.554443,2246.837158 2878.376221,2246.067139 
	C2875.543945,2242.333496 2871.299561,2244.093018 2865.830811,2243.599854 
z"/>
<path fill="#E3342F" opacity="1.000000" stroke="none" 
	d="
M3068.008057,2283.929443 
	C3125.752441,2284.630371 3181.519287,2283.255371 3238.374756,2284.399170 
	C3241.257568,2300.257324 3242.144531,2314.974121 3239.660889,2329.663574 
	C3221.903076,2332.471924 3095.772949,2333.427002 3017.618408,2331.417236 
	C3013.110840,2331.301514 3008.622314,2330.460693 3004.559082,2330.006104 
	C2999.929443,2314.661133 2999.522949,2302.561768 3003.080322,2285.332031 
	C3023.768311,2282.751465 3044.936279,2284.488770 3068.008057,2283.929443 
z"/>
<path fill="#E3342F" opacity="1.000000" stroke="none" 
	d="
M3616.041016,2296.932617 
	C3615.889404,2289.020020 3617.802734,2284.658691 3624.792725,2284.507324 
	C3628.113770,2284.435547 3631.435059,2284.348877 3634.756348,2284.341797 
	C3703.191162,2284.198730 3771.625977,2284.048584 3840.060791,2283.977295 
	C3843.953613,2283.973145 3847.846680,2284.631348 3852.148193,2285.018311 
	C3856.959473,2299.741455 3853.672852,2314.147217 3854.630127,2329.410889 
	C3850.336426,2330.347900 3847.287598,2331.592285 3844.238037,2331.593994 
	C3772.481201,2331.637451 3700.724121,2331.561035 3628.967285,2331.436279 
	C3625.744629,2331.430664 3622.522705,2330.769043 3618.535400,2330.328369 
	C3614.406494,2319.801514 3616.813232,2309.117188 3616.041016,2296.932617 
z"/>
<path fill="#EC3731" opacity="1.000000" stroke="none" 
	d="
M1410.981567,1726.796875 
	C1456.390991,1692.415771 1504.295532,1686.948608 1555.010620,1708.730225 
	C1601.711548,1728.787720 1631.258667,1776.343140 1628.940796,1826.279175 
	C1627.542603,1856.401978 1614.210815,1881.813965 1593.641602,1902.478027 
	C1535.438477,1960.949585 1441.718750,1954.834839 1390.891357,1891.632446 
	C1358.307251,1851.114990 1361.015991,1786.625854 1391.233887,1748.488037 
	C1396.999023,1741.212036 1403.656738,1734.643433 1410.981567,1726.796875 
z"/>
<path fill="#000000" opacity="1.000000" stroke="none" 
	d="
M2752.016113,1697.114014 
	C2778.621338,1697.127441 2803.231689,1697.137573 2827.842041,1697.190430 
	C2828.429932,1697.191772 2829.017090,1697.670776 2831.103027,1698.580566 
	C2831.537598,1700.675537 2832.712402,1703.699219 2832.708496,1706.721313 
	C2832.661865,1741.978516 2832.450195,1777.235474 2832.227539,1812.492065 
	C2832.215332,1814.419189 2831.715820,1816.343262 2831.302002,1819.265137 
	C2829.121338,1819.914062 2826.753418,1821.218994 2824.375488,1821.237427 
	C2782.468262,1821.563599 2740.559814,1821.767944 2698.651367,1821.865601 
	C2695.474609,1821.873047 2692.295410,1820.881226 2688.690674,1820.283081 
	C2688.690674,1779.788086 2688.690674,1739.954468 2688.690674,1699.127563 
	C2692.655029,1698.450317 2696.384766,1697.309814 2700.128906,1697.260620 
	C2716.757324,1697.041504 2733.389893,1697.135254 2752.016113,1697.114014 
z"/>
<path fill="#EC3731" opacity="1.000000" stroke="none" 
	d="
M3365.996582,1709.593506 
	C3371.057373,1715.013428 3375.536133,1719.143677 3378.735352,1724.099731 
	C3398.525879,1754.757202 3386.147705,1788.062012 3366.076904,1805.142578 
	C3339.038086,1828.152954 3279.844482,1826.695923 3260.388672,1779.204468 
	C3250.295898,1754.567627 3256.838623,1727.445312 3277.743896,1710.931763 
	C3299.359131,1693.857544 3323.506104,1690.884644 3349.142334,1700.128052 
	C3354.677979,1702.124023 3359.612061,1705.789062 3365.996582,1709.593506 
z"/>
</svg>