<svg width="145" height="125" viewBox="0 0 145 125" fill="none" xmlns="http://www.w3.org/2000/svg">
<path d="M63.3254 0.00239132C89.9307 0.0158183 114.541 0.0259503 139.151 0.0788073C139.739 0.0801493 140.326 0.559154 142.412 1.46894C142.847 3.56392 144.022 6.5876 144.018 9.60969C143.971 44.8669 143.76 80.1238 143.537 115.38C143.525 117.308 143.025 119.232 142.611 122.154C140.431 122.802 138.063 124.107 135.685 124.126C93.7776 124.452 51.8691 124.656 9.96069 124.754C6.78394 124.761 3.60474 123.77 0 123.171C0 82.6765 0 42.8428 0 2.01594C3.96435 1.3387 7.69409 0.198192 11.4382 0.148998C28.0667 -0.0701182 44.6992 0.0236313 63.3254 0.00239132Z" fill="black"/>
</svg>
