<svg width="277" height="234" viewBox="0 0 277 234" fill="none" xmlns="http://www.w3.org/2000/svg">
<path d="M184.959 47.2305C123.334 47.2349 63.4824 47.2349 3.13913 47.2349C-2.09427 32.832 0.713345 19.0979 1.07492 4.32324C5.9089 3.52148 10.2944 2.19971 14.6919 2.1582C51.2939 1.81152 87.8982 1.68481 124.502 1.52417C157.778 1.37817 191.054 1.32861 224.329 1.10205C230.947 1.05688 237.562 0.402099 244.683 0C250.072 4.55078 255.683 9.1731 261.16 13.9485C266.61 18.7002 272.79 22.8057 276.59 29.9844C260.239 52.1135 244.224 74.218 225.339 93.8706C206.509 113.465 186.539 131.964 166.094 151.893C178.221 168.953 194.258 183.056 206.824 201.254C196.372 213.478 182.914 221.734 170.355 233.147C157.311 218.052 145.495 203.075 132.28 189.454C118.875 175.635 104.352 162.853 89.8322 150.175C75.334 137.515 60.2326 125.546 44.9538 112.909C46.9919 105.146 54.6923 102.456 59.2915 97.1296C63.5471 92.2012 68.478 87.8562 73.3669 83.001C92.1269 96.0989 110.062 108.62 128.659 121.604C131.584 120.087 134.737 119.044 137.165 117.098C158.036 100.372 176.266 81.0146 192.981 60.2061C195.019 57.6697 196.368 54.5676 197.915 51.6636C198.138 51.2463 197.683 50.4678 197.505 49.6978C194.673 45.9641 190.428 47.7236 184.959 47.2305Z" fill="#E3342F"/>
</svg>
