<svg width="478" height="527" viewBox="0 0 478 527" fill="none" xmlns="http://www.w3.org/2000/svg">
<path d="M0 427.441C0.219727 285.457 0.436524 145.473 0.734619 5.48949C0.737061 4.35472 1.84106 3.2224 2.69409 1.58336C4.15698 1.13317 5.99756 0.0713982 7.83862 0.0705442C163.121 -0.00587184 318.404 0.000109592 474.771 0.000109592C475.545 3.2368 476.9 6.26012 476.899 9.28356C476.897 121.281 476.773 233.278 476.629 345.275C476.628 346.557 476.16 347.838 475.66 350.402C472.437 351.016 468.76 352.297 465.072 352.326C439.073 352.532 413.073 352.482 387.073 352.512C383.248 352.516 379.422 352.512 375.15 352.512C379.094 365.299 389.467 379.969 414.194 408.44C433.926 412.284 454.688 408.604 474.769 411.452C477.885 429.525 477.989 506.831 474.929 524.06C470.566 524.432 466 525.136 461.43 525.161C418.098 525.396 374.759 525.133 331.438 525.917C319.47 526.133 312.025 521.694 304.648 512.693C267.89 467.846 230.34 423.648 193.447 378.91C187.893 372.174 182.314 370.078 173.018 373.466C172.944 389.509 172.827 406.068 172.802 422.628C172.778 439.294 172.854 455.961 172.868 472.628C172.881 489.247 172.871 505.866 172.871 523.023C169.61 523.963 167.206 525.246 164.791 525.265C113.461 525.662 62.1292 525.933 10.7979 526.154C8.2334 526.165 5.66553 525.5 4.28784 525.312C2.66187 524.076 2.00147 523.764 1.63916 523.244C1.27588 522.724 1.04492 521.998 1.03735 521.359C0.672608 490.719 0.338379 460.08 0 427.441ZM285.264 160.126C280.052 157.23 275.118 153.565 269.583 151.569C243.947 142.326 219.8 145.298 198.184 162.373C177.279 178.886 170.736 206.009 180.829 230.645C200.285 278.137 259.479 279.594 286.517 256.583C306.588 239.503 318.966 206.198 299.176 175.541C295.977 170.585 291.498 166.454 285.264 160.126Z" fill="#FDF5E5"/>
</svg>
