<svg width="639" height="618" viewBox="0 0 639 618" fill="none" xmlns="http://www.w3.org/2000/svg">
<path d="M167.548 615.085C166.249 593.706 166.035 573.736 165.862 553.765C165.805 547.168 165.854 540.571 165.854 532.615C159.736 531.917 154.702 530.873 149.663 530.843C107.013 530.593 64.3628 530.549 21.713 530.384C15.1814 530.359 8.65076 530.031 2.90039 529.866C1.60742 528.405 1.07349 527.958 0.748413 527.391C0.432251 526.84 0.158813 526.166 0.158447 525.545C0.0756833 382.282 0.0136721 239.02 7.57557e-08 95.7567C-0.000243924 93.1404 0.58899 90.524 0.947266 87.5416C14.3152 84.2877 27.6661 86.1544 40.8668 85.7723C54.85 85.3674 68.8538 85.6403 82.8484 85.6783C96.1765 85.7145 109.504 85.8608 122.833 85.9014C136.033 85.9415 149.235 85.9102 163.557 85.9102C167.38 71.2935 165.041 57.3394 165.631 43.6314C166.226 29.7996 164.87 15.8696 166.452 3.37329C168.299 1.73938 168.723 1.21948 169.268 0.921633C169.841 0.609011 170.529 0.341189 171.167 0.340212C270.448 0.195192 369.73 0.0703151 469.011 2.06029e-06C470.927 -0.00134094 472.844 0.654177 475.461 1.13086C478.877 14.7974 477.042 28.781 477.523 42.5885C477.984 55.7943 477.968 69.0166 478.179 83.4714C484.3 84.17 489.351 85.2289 494.407 85.2473C533.724 85.3911 573.043 85.2947 612.361 85.3732C620.276 85.389 628.19 85.8334 636.807 86.1021C639.938 93.7477 638.701 101.093 638.703 108.142C638.727 184.113 638.515 260.084 638.517 336.056C638.518 394.034 638.734 452.011 638.851 509.989C638.862 515.28 638.853 520.57 638.853 525.236C632.232 530.865 625.296 528.94 618.872 528.919C579.555 528.789 540.239 528.387 500.923 528.094C494.28 528.045 487.636 528.087 480.055 528.087C479.055 532.219 477.463 535.861 477.404 539.528C477.103 558.183 477.252 576.844 477.126 595.503C477.082 602.059 476.704 608.612 476.436 616.406C472.571 616.909 469.478 617.66 466.385 617.662C370.422 617.723 274.458 617.722 178.494 617.658C175.212 617.655 171.931 616.899 167.548 615.085ZM233.381 218.617C227.135 225.511 220.478 232.08 214.713 239.356C184.495 277.494 181.786 341.983 214.37 382.5C265.197 445.703 358.917 451.818 417.12 393.346C437.689 372.682 451.021 347.27 452.419 317.147C454.737 267.211 425.19 219.656 378.489 199.598C327.774 177.817 279.87 183.284 233.381 218.617Z" fill="#FDF5E5"/>
</svg>
