<svg width="464" height="527" viewBox="0 0 464 527" fill="none" xmlns="http://www.w3.org/2000/svg">
<path d="M184.022 338.799C179.37 338.899 176.714 339.021 172.709 339.204C172.147 343.486 171.089 347.861 171.073 352.239C170.893 402.871 170.894 453.502 170.782 504.134C170.768 510.649 170.391 517.163 170.186 523.518C167.269 524.597 165.451 525.855 163.63 525.858C111.671 525.934 59.7128 525.904 7.75434 525.775C5.90204 525.771 4.05268 524.59 2.32636 524C-0.217833 507.743 -0.983945 23.5248 1.60004 1.71039C19.6689 -1.36761 38.1982 0.727234 56.5883 0.343323C75.2338 -0.045715 93.8945 0.125916 112.547 0.292908C131.05 0.458435 149.597 -0.515075 169.191 1.04877C171.07 14.3377 170.419 26.9355 170.661 39.4478C170.918 52.7674 170.816 66.0945 170.82 79.4184C170.823 92.0762 170.731 104.734 170.736 117.392C170.74 130.716 170.695 144.041 170.882 157.363C171.057 169.847 170.567 182.387 171.741 194.503C188.074 196.957 270.216 196.908 291.612 194.487C291.985 189.048 292.691 183.299 292.726 177.546C293.041 125.583 293.2 73.6198 293.522 21.6574C293.563 15.1172 292.436 8.32013 295.852 2.31476C313.617 -0.457701 444.157 -0.52362 461.095 2.17511C461.546 2.66559 462.112 3.09467 462.414 3.66412C462.711 4.22235 462.866 4.92316 462.867 5.56134C463.045 175.434 463.209 345.307 463.334 515.18C463.336 517.805 462.854 520.43 462.525 523.793C459.274 524.495 456.148 525.739 453.014 525.761C403.716 526.103 354.418 526.308 305.12 526.463C301.928 526.473 298.735 525.825 294.331 525.353C293.847 518.835 293.027 513.049 293.048 507.266C293.226 459.301 293.564 411.336 293.838 363.372C293.88 356.095 293.845 348.818 293.845 340.456C288.824 339.841 284.391 338.845 279.954 338.828C248.643 338.713 217.331 338.8 184.022 338.799Z" fill="#FBF3E4"/>
</svg>
