<svg width="570" height="527" viewBox="0 0 570 527" fill="none" xmlns="http://www.w3.org/2000/svg">
<path d="M569.07 315.585C569.005 386.14 568.956 454.694 568.907 522.989C549.564 526.448 407.116 526.855 389.456 523.559C387.2 502.054 388.089 480.189 387.822 458.387C387.552 436.4 387.789 414.407 387.843 392.416C387.896 371.092 387.99 349.768 388.08 328.444C388.172 306.785 388.451 285.12 388.203 264.039C385.409 263.412 384.809 263.131 384.243 263.189C383.603 263.254 382.886 263.49 382.391 263.886C380.839 265.127 379.322 266.423 377.887 267.797C348.542 295.89 319.212 324 289.854 352.082C289.406 352.51 288.655 352.622 286.531 353.525C269.932 339.606 253.932 323.91 237.522 308.688C220.946 293.312 204.452 277.847 186.503 261.096C185.182 265.345 183.571 268.139 183.558 270.941C183.406 302.927 183.521 334.913 183.519 366.9C183.515 413.547 183.473 460.194 183.447 506.842C183.444 512.087 183.447 517.332 183.447 523.102C179.026 523.957 175.877 524.968 172.687 525.123C131.797 527.115 19.0485 526.561 2.57776 524.323C-1.42712 519.318 0.430666 513.087 0.42798 507.388C0.380983 406.763 0.536623 306.139 0.577394 205.514C0.602174 144.207 0.479006 82.8995 0.504884 21.5924C0.50757 15.124 1.06751 8.65602 1.32898 3.04249C3.97559 1.71022 5.12293 0.630263 6.27551 0.624648C64.2377 0.338027 122.2 0.129409 180.163 1.41494e-05C182.023 -0.00413585 183.886 0.90541 186.809 1.66493C189.883 18.5936 186.49 35.9501 189.246 54.969C219.966 83.9301 251.793 114.042 285.114 143.813C289.492 140.098 293.05 137.335 296.319 134.264C320.116 111.913 343.443 89.0394 367.792 67.3093C379.229 57.1026 384.478 45.8252 383.311 30.6658C382.604 21.4835 383.556 12.1735 383.787 1.81593C387.809 1.19777 390.879 0.322402 393.952 0.313735C449.926 0.155043 505.901 0.0949847 561.876 0.0582417C563.148 0.0573867 564.42 0.570205 566.091 0.929091C571.096 6.39271 568.791 13.3755 568.805 19.7062C569.016 111.001 569.021 202.297 569.076 293.592C569.08 300.256 569.082 306.921 569.07 315.585Z" fill="#FCF4E5"/>
</svg>
