<svg width="289" height="270" viewBox="0 0 289 270" fill="none" xmlns="http://www.w3.org/2000/svg">
<path d="M207.723 191.43C207.47 207.414 207.321 221.408 206.94 235.396C206.681 244.934 203.838 253.717 198.463 261.664C195.27 266.385 190.955 269.175 185.251 269.522C182.605 269.683 179.932 269.501 177.275 269.385C158.074 268.546 138.874 267.685 118.564 266.782C116.374 252.997 114.318 240.063 112.141 226.364C126.768 221.156 141.837 227.316 156.504 222.075C157.349 220.26 159.368 217.93 159.384 215.585C159.594 184.318 159.524 153.049 159.524 121.772C155.454 119.668 153.484 122.788 151.56 125.286C146.275 132.147 141.187 139.16 136.022 146.114C108.676 182.932 74.3887 212.08 35.4836 238.053C29.2117 232.598 23.1462 227.641 17.4563 222.285C11.7622 216.925 4.6062 212.927 0 204.429C44.178 178.02 83.0671 146.094 112.773 104.087C114.138 102.157 114.422 99.463 115.632 95.8719C103.321 93.2068 92.1099 94.8101 81.0579 94.4769C70.4036 94.1558 59.7312 94.4857 49.0713 94.2889C37.9099 94.0826 26.624 95.2386 14.5981 92.7413C11.7346 78.876 12.0417 65.8939 13.7214 52.2171C29.1826 48.137 44.438 51.044 59.564 50.9796C75.5583 50.9117 91.5532 51.0062 107.548 51.0162C122.787 51.0259 138.026 51.0184 154.438 51.0184C155.34 45.597 156.428 41.2818 156.712 36.9141C157.439 25.7545 155.525 14.4415 158.108 2.17121C172.837 -1.03778 187.225 -0.01068 202.604 0.979067C203.729 4.84503 205.435 8.43048 205.715 12.1238C206.37 20.7525 206.229 29.4383 206.638 38.0902C206.818 41.9083 207.551 45.7 208.186 50.7117C234.163 52.7991 259.385 50.159 285.116 51.8917C290.079 65.199 287.375 78.2916 287.074 92.2711C283.09 93.1912 279.413 94.7432 275.724 94.7696C260.401 94.8795 245.074 94.4446 229.748 94.3882C223.206 94.3641 216.663 94.7781 209.504 95.0135C205.614 111.776 208.182 127.701 207.79 143.454C207.409 158.773 207.721 174.109 207.723 191.43Z" fill="#E3342F"/>
</svg>
