<svg width="273" height="270" viewBox="0 0 273 270" fill="none" xmlns="http://www.w3.org/2000/svg">
<path d="M172.521 269.799C159.572 269.886 148.293 269.886 136.027 269.886C134.469 265.01 132.509 260.869 131.881 256.535C129.969 243.355 128.7 230.084 126.918 216.884C126.044 210.409 126.378 203.496 120.836 196.901C84.5259 199.721 47.6985 203.649 10.1721 209.09C4.27612 195.16 2.35229 180.944 0 166.155C12.8264 161.421 25.6597 162.74 37.9614 160.808C51.0986 158.745 64.4966 158.402 77.7073 156.731C90.0413 155.17 102.878 156.246 115.421 151.228C116.767 134.304 112.378 119.141 109.916 102.485C91.8301 103.801 75.3616 105.647 58.8604 106.016C42.4495 106.383 25.9739 110.537 8.47852 106.533C7.44141 92.9515 6.44482 79.9042 5.38599 66.0367C22.252 62.1322 38.9714 64.0909 55.2754 61.9723C70.959 59.9344 87.0684 61.3685 102.871 56.8558C104.034 38.2201 96.1438 21.1871 96.0662 2.48035C111.817 -0.590455 126.807 -0.334108 142.053 0.720824C149.559 17.0922 144.92 35.6393 153.366 52.5062C183.23 51.5287 212.411 44.7924 242.204 41.2301C248.638 54.6825 249.984 68.5184 254.375 82.5653C238.04 88.5272 222.02 88.2111 206.462 90.2828C190.707 92.3805 174.871 93.8732 158.377 95.7081C156.559 113.543 161.201 129.263 164.637 146.56C198.609 145.121 231.275 139.643 265.28 135.532C271.126 148.998 269.708 163.005 272.874 177.068C260.913 182.116 249.468 180.81 238.491 182.077C227.906 183.299 217.273 184.112 206.655 185.035C195.452 186.01 184.242 186.902 172.379 187.885C171.02 202.2 175.265 214.919 177.289 227.814C179.24 240.243 182.211 252.512 185.004 266.173C181.207 267.415 177.699 268.564 172.521 269.799Z" fill="#E3342F"/>
</svg>
