<svg width="386" height="528" viewBox="0 0 386 528" fill="none" xmlns="http://www.w3.org/2000/svg">
<path d="M172.522 276.749C172.522 310.653 172.522 342.556 172.522 373.569C177.699 379.332 183.363 377.318 188.398 377.324C246.379 377.394 304.36 377.288 362.34 377.231C368.959 377.225 375.578 377.23 381.92 377.23C385.627 392.768 386.643 478.584 383.827 524.769C380.421 525.281 376.731 526.315 373.039 526.323C255.079 526.585 137.119 526.773 19.1585 526.853C13.3277 526.857 7.084 528.357 0.620864 523.2C0.0261384 352.948 -0.262925 181.761 0.31105 10.5728C0.319595 8.0633 1.0674 5.55609 1.63966 1.99042C6.7798 1.66046 11.2688 1.17865 15.7642 1.11164C153.894 -0.95123 364.427 0.00787663 383.106 2.74567C385 16.7404 385.39 120.483 383.591 142.726C377.191 147.231 369.605 145.086 362.585 145.138C306.605 145.553 250.624 145.607 194.643 145.822C188.072 145.848 181.501 146.175 174.478 146.375C170.756 161.074 172.908 175.015 172.562 188.779C172.193 203.431 172.48 218.1 172.487 232.762C172.494 246.758 172.511 260.753 172.522 276.749Z" fill="#FCF4E5"/>
</svg>
