<svg width="528" height="527" viewBox="0 0 528 527" fill="none" xmlns="http://www.w3.org/2000/svg">
<path d="M439.425 0.201724C469.226 0.642886 497.072 -0.907529 523.358 0.8996C525.229 2.62641 525.853 3.00129 526.171 3.55268C526.484 4.09601 526.609 4.81806 526.61 5.46186C526.777 174.646 526.928 343.831 527.053 513.016C527.055 516.314 526.748 519.612 526.537 523.888C522.632 524.668 518.926 526.043 515.216 526.055C460.595 526.23 405.973 526.258 351.352 526.195C346.847 526.19 342.344 525.268 336.566 524.632C335.245 488.749 336.504 453.611 335.67 418.316C333.558 417.418 331.818 416.034 330.074 416.03C284.795 415.911 239.517 415.936 193.117 415.936C192.44 419.527 191.172 423.224 191.135 426.933C190.879 452.244 190.877 477.557 190.802 502.87C190.783 509.485 190.8 516.101 190.8 521.902C189.254 523.108 188.766 523.528 188.239 523.888C187.689 524.263 187.105 524.872 186.529 524.881C141.918 525.564 97.3086 526.256 52.6965 526.803C36.7527 526.998 20.8047 526.834 5.84812 526.834C0.208718 520.681 1.49143 514.374 1.3657 508.597C0.728738 479.296 0.0702909 449.989 0.0407499 420.683C-0.0659401 314.104 0.0595483 207.526 0.157693 100.947C0.164285 93.7661 0.670876 86.5859 0.960916 78.9866C11.8015 75.2495 21.833 76.9026 31.604 76.5252C42.2473 76.1143 52.9162 76.3571 63.5742 76.3384C73.4807 76.3211 83.3872 76.3348 94.4057 76.3348C95.021 71.6202 95.894 67.8843 95.9297 64.1406C96.0803 48.1551 95.9026 32.1668 96.0283 16.1809C96.0637 11.7004 96.7261 7.22504 96.9905 4.06513C98.8349 2.41608 99.268 1.86872 99.8323 1.5694C100.405 1.2663 101.098 1.13129 101.754 1.05768C103.73 0.836245 105.713 0.53046 107.695 0.521793C143.665 0.366032 179.635 0.159732 215.605 0.142276C289.545 0.106509 363.485 0.176211 439.425 0.201724ZM253.446 149.059C236.815 149.078 220.183 148.985 203.554 149.204C199.81 149.253 196.08 150.393 192.116 151.071C192.116 191.898 192.116 231.731 192.116 272.226C195.721 272.824 198.9 273.816 202.077 273.809C243.985 273.711 285.894 273.507 327.801 273.18C330.179 273.162 332.547 271.857 334.727 271.208C335.141 268.286 335.641 266.362 335.653 264.435C335.875 229.179 336.087 193.922 336.134 158.664C336.138 155.642 334.963 152.619 334.528 150.524C332.442 149.614 331.855 149.135 331.267 149.133C306.657 149.081 282.047 149.07 253.446 149.059Z" fill="#FCF4E5"/>
</svg>
