<svg width="451" height="605" viewBox="0 0 451 605" fill="none" xmlns="http://www.w3.org/2000/svg">
<path d="M284.613 28.3484C284.806 18.5462 284.987 10.6697 285.129 4.50978C287.014 2.36769 287.38 1.75306 287.916 1.39991C288.442 1.05384 289.138 0.819225 289.767 0.801158C299.743 0.513316 309.719 0.0673932 319.697 0.0482282C362.314 -0.0335598 404.931 0.0134381 446.589 0.0134381C452.126 5.18702 450.568 10.8176 450.577 15.9271C450.733 99.2275 450.799 182.528 450.81 265.829C450.815 296.483 450.618 327.138 450.523 357.793C450.502 364.422 450.52 371.05 450.52 378.864C445.487 379.563 441.136 380.665 436.778 380.693C402.125 380.918 367.471 380.942 332.818 381.021C326.22 381.036 319.622 381.023 313.784 381.023C308.377 388.022 310.144 394.933 310.119 401.392C309.883 462.035 309.885 522.68 309.688 583.323C309.667 589.874 311.171 596.65 307.963 602.903C292.267 605.088 159.198 605.171 136.999 602.872C136.455 598.188 135.385 593.168 135.364 588.144C135.15 538.164 135.102 488.184 135.026 438.204C134.998 420.244 135.022 402.284 135.022 383.217C129.608 382.357 125.218 381.067 120.826 381.057C88.1725 380.977 55.5187 381.154 22.8649 381.243C16.3014 381.261 9.73792 381.246 5.1891 381.246C2.66908 379.406 2.00892 379.118 1.66029 378.616C1.29945 378.095 1.07581 377.366 1.07289 376.726C0.68519 295.444 0.19105 214.162 0.012827 132.88C-0.0819 89.6387 0.372202 46.3965 0.581675 2.5337C3.74915 1.59425 6.15882 0.262217 8.5724 0.254771C57.8864 0.100596 107.201 0.0820414 156.516 0.126719C158.354 0.128428 160.192 1.03944 163.403 1.89125C164.672 29.0613 163.849 56.22 163.998 83.3491C164.148 110.672 164.097 137.995 164.111 165.318C164.127 192.523 164.114 219.728 164.114 245.178C165.93 247.414 166.253 248.057 166.774 248.386C167.31 248.725 168.039 248.904 168.685 248.906C204.652 249.015 240.618 249.117 276.585 249.128C278.45 249.128 280.316 248.315 283.218 247.639C285.377 223.862 283.83 200.011 284.07 176.219C284.318 151.564 284.052 126.904 284.131 102.247C284.209 78.2557 284.438 54.265 284.613 28.3484Z" fill="#FCF4E5"/>
</svg>
